<svg width="1440" height="125" viewBox="0 0 1440 125" fill="none" xmlns="http://www.w3.org/2000/svg">
<rect width="1440" height="125" fill="white"/>
<path d="M1334 96.125C1327.12 96.125 1321.28 93.8281 1316.47 89.2344C1311.66 84.6406 1309.25 79.0625 1309.25 72.5C1309.25 65.9375 1311.66 60.3594 1316.47 55.7656C1321.28 51.1719 1327.12 48.875 1334 48.875C1334.64 48.875 1335.27 48.8969 1335.89 48.9406C1336.51 48.9844 1337.12 49.05 1337.71 49.1375C1335.83 50.4063 1334.33 52.0578 1333.21 54.0922C1332.09 56.1266 1331.53 58.325 1331.53 60.6875C1331.53 64.625 1332.97 67.9719 1335.86 70.7281C1338.74 73.4844 1342.25 74.8625 1346.38 74.8625C1348.9 74.8625 1351.21 74.3266 1353.32 73.2547C1355.43 72.1828 1357.15 70.75 1358.47 68.9563C1358.57 69.525 1358.64 70.1047 1358.68 70.6953C1358.73 71.2859 1358.75 71.8875 1358.75 72.5C1358.75 79.0625 1356.34 84.6406 1351.53 89.2344C1346.72 93.8281 1340.88 96.125 1334 96.125ZM1334 90.875C1338.03 90.875 1341.65 89.8141 1344.86 87.6922C1348.07 85.5703 1350.41 82.8031 1351.88 79.3906C1350.96 79.6094 1350.04 79.7844 1349.12 79.9156C1348.21 80.0469 1347.29 80.1125 1346.38 80.1125C1340.74 80.1125 1335.94 78.2203 1331.97 74.4359C1328.01 70.6516 1326.02 66.0687 1326.02 60.6875C1326.02 59.8125 1326.09 58.9375 1326.23 58.0625C1326.37 57.1875 1326.55 56.3125 1326.78 55.4375C1323.21 56.8375 1320.31 59.0688 1318.08 62.1313C1315.86 65.1938 1314.75 68.65 1314.75 72.5C1314.75 77.575 1316.63 81.9062 1320.39 85.4937C1324.15 89.0812 1328.68 90.875 1334 90.875Z" fill="#1D1B20"/>
<path d="M260.715 82.4147V58.585H266.354L270.858 70.4998L275.37 58.585H281V82.4147H276.496V69.702L271.984 82.4147H269.732L265.219 69.702V82.4147H260.715Z" fill="black"/>
<path d="M251.484 58C255.833 58 259.366 60.6241 259.366 69.6312V71.3688C259.383 80.3759 255.825 82.9823 251.484 83C247.135 82.9823 243.577 80.3759 243.594 71.3688V69.6312C243.577 60.6064 247.135 58.0177 251.484 58ZM254.862 70.7837V70.1986C254.888 66.3156 253.324 65.6064 251.484 65.5532C249.636 65.6064 248.072 66.3156 248.098 70.1986V70.7837C248.072 74.6844 249.636 75.3936 251.484 75.4468C253.324 75.3936 254.888 74.6844 254.862 70.7837Z" fill="black"/>
<path d="M237.852 72.539H242.468C242.184 80.5886 238.763 83 234.603 83C230.271 82.9823 226.696 80.3936 226.713 71.3688V69.6312C226.696 60.6241 230.271 58.0355 234.603 58C238.763 58.0177 242.184 60.4291 242.468 68.461H237.852C237.431 66.1206 236.15 65.5709 234.603 65.5709C232.764 65.6241 231.2 66.2979 231.225 70.2163V70.8014C231.2 74.6844 232.764 75.3936 234.603 75.4468C236.15 75.4468 237.44 74.8794 237.852 72.539Z" fill="black"/>
<path d="M221.865 75.4648H226.369V82.4329H221.865V75.4648Z" fill="black"/>
<path d="M217.009 70.8013V58.585H221.522V71.3864C221.539 80.3935 217.963 82.9821 213.631 82.9998C209.299 82.9821 205.724 80.3935 205.741 71.3864V58.585H210.245V70.8013C210.227 74.7197 211.783 75.3935 213.631 75.4467C215.471 75.3935 217.035 74.7197 217.009 70.8013Z" fill="black"/>
<path d="M197.644 73.7088L200.326 58.6201H205.397L200.326 82.4499H194.971L192.436 70.535L189.9 82.4499H184.545L179.474 58.6201H184.545L187.218 73.7088L189.9 58.6201H194.971L197.644 73.7088Z" fill="black"/>
<path d="M171.799 66.1733H164.192V58.6201H179.122V66.1733L171.24 74.879H179.122V82.4499H164.192V74.879L171.799 66.1733Z" fill="black"/>
<path d="M157.548 71.2091V58.585H162.06V82.4147H156.989L150.783 67.858V82.4147H146.279V58.585H152.476L157.548 71.2091Z" fill="black"/>
<path d="M139.386 58.585H143.89V82.4147H139.386V58.585Z" fill="black"/>
<path d="M132.519 82.4499H128.015V66.1733H122.66V58.6201H137.874V66.1733H132.519V82.4499Z" fill="black"/>
<path d="M111.563 66.4397C111.563 67.4858 112.964 67.6277 114.778 67.805C118.001 68.1418 122.531 68.6028 122.522 74.578C122.522 81.3865 118.74 83 114.684 83C110.635 82.9823 107.274 81.9716 106.845 74.578H111.563C112.079 76.422 113.274 76.9007 114.684 76.9007C116.085 76.9007 117.804 76.422 117.804 74.578C117.804 73.5319 116.403 73.3723 114.589 73.195C111.366 72.8581 106.836 72.3972 106.845 66.4397C106.845 59.6312 110.627 58 114.684 58C118.732 58.0532 122.093 58.9929 122.522 66.4397H117.804C117.288 64.5603 116.093 64.117 114.684 64.117C113.283 64.117 111.563 64.5425 111.563 66.4397Z" fill="black"/>
<path d="M101.043 70.8013V58.585H105.556V71.3864C105.573 80.3935 101.997 82.9821 97.6653 82.9998C93.3334 82.9821 89.7578 80.3935 89.775 71.3864V58.585H94.2788V70.8013C94.2616 74.7197 95.8174 75.3935 97.6653 75.4467C99.5047 75.3935 101.069 74.7197 101.043 70.8013Z" fill="black"/>
<path d="M83.2683 70.8011V58.6025H87.7722V71.3862C87.7722 80.3756 84.2482 82.9997 79.8818 82.9997C75.5413 82.982 71.9829 80.3933 72.0001 71.3862V68.4784H76.5039V70.8011C76.4781 74.7196 78.0425 75.3933 79.8818 75.4465C81.7298 75.3933 83.2941 74.7196 83.2683 70.8011Z" fill="black"/>
<circle cx="1160.08" cy="73.0841" r="37.5841" fill="#CD5909" stroke="black"/>
<path d="M1084.08 35.5C1104.84 35.5 1121.67 52.3269 1121.67 73.084C1121.67 93.8411 1104.84 110.668 1084.08 110.668C1063.33 110.668 1046.5 93.8411 1046.5 73.084C1046.5 52.3269 1063.33 35.5001 1084.08 35.5Z" fill="#CD5909" stroke="black"/>
<circle cx="1008.08" cy="73.0841" r="37.5841" fill="#CD5909" stroke="black"/>
<circle cx="1008.08" cy="73.0841" r="37.5841" fill="#CD5909" stroke="black"/>
<circle cx="1008.08" cy="73.0841" r="37.5841" fill="#CD5909" stroke="black"/>
<path d="M932.084 35.5C952.841 35.5 969.668 52.3269 969.668 73.084C969.668 93.8411 952.841 110.668 932.084 110.668C911.327 110.668 894.5 93.8411 894.5 73.084C894.5 52.3269 911.327 35.5001 932.084 35.5Z" fill="#CD5909" stroke="black"/>
<circle cx="856.084" cy="73.0841" r="37.5841" fill="#CD5909" stroke="black"/>
<circle cx="1236" cy="73" r="37.5" fill="#CD5909" stroke="black"/>
<path d="M1214.74 62.6816L1217.15 70.0781H1224.92L1218.63 74.6493L1221.04 82.0458L1214.74 77.4745L1208.45 82.0458L1210.86 74.6493L1204.56 70.0781H1212.34L1214.74 62.6816Z" fill="#CD5909"/>
<path d="M1256.52 62.6816L1259.41 70.4948L1267.22 73.3859L1259.41 76.277L1256.52 84.0901L1253.63 76.277L1245.81 73.3859L1253.63 70.4948L1256.52 62.6816Z" fill="#CD5909"/>
<path d="M1232.61 73.0492C1232.41 72.8525 1232.41 72.5339 1232.61 72.3374L1235.66 65.0513C1235.86 64.8548 1236.17 64.8547 1236.37 65.0513L1239.27 72.3697C1239.47 72.5663 1239.47 72.885 1239.27 73.0815L1236.37 80.1147C1236.17 80.3112 1235.86 80.3113 1235.66 80.1147L1232.61 73.0492Z" fill="#CD5909"/>
<path d="M1214.74 62.6816L1217.15 70.0781H1224.92L1218.63 74.6493L1221.04 82.0458L1214.74 77.4745L1208.45 82.0458L1210.86 74.6493L1204.56 70.0781H1212.34L1214.74 62.6816Z" fill="white"/>
<path d="M1256.52 62.6816L1259.41 70.4948L1267.22 73.3859L1259.41 76.277L1256.52 84.0901L1253.63 76.277L1245.81 73.3859L1253.63 70.4948L1256.52 62.6816Z" fill="white"/>
<path d="M1232.61 73.0492C1232.41 72.8525 1232.41 72.5339 1232.61 72.3374L1235.66 65.0513C1235.86 64.8548 1236.17 64.8547 1236.37 65.0513L1239.27 72.3697C1239.47 72.5663 1239.47 72.885 1239.27 73.0815L1236.37 80.1147C1236.17 80.3112 1235.86 80.3113 1235.66 80.1147L1232.61 73.0492Z" fill="white"/>
</svg>
