<svg width="183" height="38" viewBox="0 0 183 38" fill="none" xmlns="http://www.w3.org/2000/svg">
<path d="M38 19C38 29.4934 29.4934 38 19 38C8.50659 38 0 29.4934 0 19C0 8.50659 8.50659 0 19 0C29.4934 0 38 8.50659 38 19Z" fill="#CD5909"/>
<path d="M55.5 27.8C51.2 27.8 48.925 25.425 48.925 20.8C48.925 16.15 51.675 13.825 55.575 13.825C59.725 13.825 61.875 16.2 61.875 20.95V21.5H52.325C52.475 24.275 53.55 25.525 55.55 25.525C56.975 25.525 58.025 24.75 58.275 23.35H61.675C61.375 26.2 58.675 27.8 55.5 27.8ZM58.475 19.375C58.25 17.025 57.225 16.05 55.5 16.05C53.8 16.05 52.675 17.075 52.375 19.375H58.475ZM62.234 27.5L66.759 20.475L62.609 14.125H66.459L68.959 18.375L71.409 14.125H75.159L70.984 20.475L75.534 27.5H71.684L68.859 22.775L65.984 27.5H62.234ZM77.1885 31.975V17.375L77.1385 14.125H80.5385L80.6385 15.875H80.6635C81.3385 14.75 82.8885 13.825 84.6385 13.825C88.1135 13.825 90.4385 16.275 90.4385 20.825C90.4385 25.65 87.6135 27.8 84.4885 27.8C82.7385 27.8 81.2885 26.975 80.6635 25.975H80.6385V31.975H77.1885ZM83.7635 25.3C85.8635 25.3 86.9885 23.625 86.9885 20.8C86.9885 17.95 85.8385 16.325 83.7635 16.325C81.6885 16.325 80.4885 17.975 80.4885 20.8C80.4885 23.65 81.6885 25.3 83.7635 25.3ZM98.8594 27.8C94.5594 27.8 92.2844 25.425 92.2844 20.8C92.2844 16.15 95.0344 13.825 98.9344 13.825C103.084 13.825 105.234 16.2 105.234 20.95V21.5H95.6844C95.8344 24.275 96.9094 25.525 98.9094 25.525C100.334 25.525 101.384 24.75 101.634 23.35H105.034C104.734 26.2 102.034 27.8 98.8594 27.8ZM101.834 19.375C101.609 17.025 100.584 16.05 98.8594 16.05C97.1594 16.05 96.0344 17.075 95.7344 19.375H101.834ZM107.779 27.5V16.175L107.754 14.125H111.179L111.229 16.225H111.304C111.654 15.075 112.904 13.85 114.854 13.85H115.654V16.85H114.354C112.354 16.85 111.229 18.175 111.229 20.825V27.5H107.779ZM117.789 27.5V14.125H121.214V27.5H117.789ZM117.739 12.5V9.65H121.289V12.5H117.739ZM130.329 27.8C126.029 27.8 123.754 25.425 123.754 20.8C123.754 16.15 126.504 13.825 130.404 13.825C134.554 13.825 136.704 16.2 136.704 20.95V21.5H127.154C127.304 24.275 128.379 25.525 130.379 25.525C131.804 25.525 132.854 24.75 133.104 23.35H136.504C136.204 26.2 133.504 27.8 130.329 27.8ZM133.304 19.375C133.079 17.025 132.054 16.05 130.329 16.05C128.629 16.05 127.504 17.075 127.204 19.375H133.304ZM139.249 27.5V16.3L139.199 14.125H142.624L142.699 15.975H142.774C143.424 14.8 144.924 13.825 146.824 13.825C149.674 13.825 151.574 15.55 151.574 18.675V27.5H148.124V19.225C148.124 17.35 147.224 16.35 145.699 16.35C143.824 16.35 142.699 17.75 142.699 20V27.5H139.249ZM160.553 27.8C156.403 27.8 154.003 25.325 154.003 20.8C154.003 16.25 156.578 13.825 160.703 13.825C164.403 13.825 166.528 15.65 166.728 18.35H163.253C163.028 16.925 162.003 16.2 160.653 16.2C158.553 16.2 157.428 17.7 157.428 20.8C157.428 23.925 158.528 25.425 160.653 25.425C162.053 25.425 163.128 24.725 163.353 23.15H166.803C166.478 26.125 163.928 27.8 160.553 27.8ZM175.08 27.8C170.78 27.8 168.505 25.425 168.505 20.8C168.505 16.15 171.255 13.825 175.155 13.825C179.305 13.825 181.455 16.2 181.455 20.95V21.5H171.905C172.055 24.275 173.13 25.525 175.13 25.525C176.555 25.525 177.605 24.75 177.855 23.35H181.255C180.955 26.2 178.255 27.8 175.08 27.8ZM178.055 19.375C177.83 17.025 176.805 16.05 175.08 16.05C173.38 16.05 172.255 17.075 171.955 19.375H178.055Z" fill="black"/>
</svg>
