<svg width="670" height="271" viewBox="0 0 670 271" fill="none" xmlns="http://www.w3.org/2000/svg">
<path d="M608.528 150.859C608.528 161.588 609.125 171.819 610.317 181.55C611.508 191.281 613.571 199.265 616.505 205.503C619.439 211.491 623.473 214.485 628.607 214.485C633.832 214.485 637.774 211.366 640.433 205.129C643.183 198.891 645.063 190.906 646.071 181.175C647.172 171.444 647.722 161.339 647.722 150.859V3.02234H670V147.491C670 173.69 668.533 196.021 665.6 214.485C662.666 232.949 658.127 247.047 651.984 256.778C645.842 266.259 637.957 271 628.331 271C618.705 271 610.774 266.26 604.54 256.778C598.306 247.297 593.676 233.323 590.651 214.859C587.717 196.395 586.25 173.939 586.25 147.491V3.02234H608.528V150.859Z" fill="white"/>
<path d="M608.528 150.859C608.528 161.588 609.125 171.819 610.317 181.55C611.508 191.281 613.571 199.265 616.505 205.503C619.439 211.491 623.473 214.485 628.607 214.485C633.832 214.485 637.774 211.366 640.433 205.129C643.183 198.891 645.063 190.906 646.071 181.175C647.172 171.444 647.722 161.339 647.722 150.859V3.02234H670V147.491C670 173.69 668.533 196.021 665.6 214.485C662.666 232.949 658.127 247.047 651.984 256.778C645.842 266.259 637.957 271 628.331 271C618.705 271 610.774 266.26 604.54 256.778C598.306 247.297 593.676 233.323 590.651 214.859C587.717 196.395 586.25 173.939 586.25 147.491V3.02234H608.528V150.859Z" stroke="white"/>
<path d="M483.52 198.745L499.119 3.02234H527.579L543.041 198.745L557.682 3.02234H581.08L558.503 267.977H528.4L512.938 78.243L497.614 267.977H466.415L443.565 3.02234H468.195L483.52 198.745Z" fill="white"/>
<path d="M483.52 198.745L499.119 3.02234H527.579L543.041 198.745L557.682 3.02234H581.08L558.503 267.977H528.4L512.938 78.243L497.614 267.977H466.415L443.565 3.02234H468.195L483.52 198.745Z" stroke="white"/>
<path d="M414.997 168.432V3.02234H437.361V267.977H416.369L372.737 104.439V267.977H350.509V3.02234H372.05L414.997 168.432Z" fill="white"/>
<path d="M414.997 168.432V3.02234H437.361V267.977H416.369L372.737 104.439V267.977H350.509V3.02234H372.05L414.997 168.432Z" stroke="white"/>
<path d="M345.34 267.977H322.593V3.02234H345.34V267.977Z" fill="white"/>
<path d="M345.34 267.977H322.593V3.02234H345.34V267.977Z" stroke="white"/>
<path d="M318.457 58.7303H289.068V265.963H266.924V58.7303H237.808V3.02234H318.457V58.7303Z" fill="white"/>
<path d="M318.457 58.7303H289.068V265.963H266.924V58.7303H237.808V3.02234H318.457V58.7303Z" stroke="white"/>
<path d="M199.831 0C206.336 0 212.109 3.20237 217.148 9.60742C222.279 16.0126 226.402 25.4976 229.517 38.0615C232.724 50.3793 234.648 65.6536 235.29 83.8838H213.713C213.346 77.4786 212.383 72.1821 210.826 67.9941C209.36 63.8062 207.436 60.6039 205.053 58.3867C202.763 56.1696 200.106 55.0606 197.083 55.0605C195.25 55.0605 193.463 55.5528 191.722 56.5381C190.073 57.2771 188.607 58.5099 187.324 60.2344C186.133 61.9588 185.125 64.2989 184.3 67.2549C183.567 69.9647 183.201 73.4137 183.201 77.6016C183.201 82.036 183.751 85.855 184.85 89.0576C185.95 92.0137 187.507 94.6003 189.523 96.8174C191.63 99.0346 194.196 101.253 197.219 103.47C199.327 105.441 201.48 107.042 203.679 108.273C205.97 109.259 208.169 110.614 210.276 112.338C214.124 114.801 217.652 117.758 220.859 121.207C224.157 124.41 227.043 128.598 229.517 133.771C231.991 138.699 233.915 145.35 235.29 153.726C236.756 161.855 237.489 172.202 237.489 184.767C237.489 200.041 236.435 212.974 234.328 223.567C232.22 233.914 229.335 242.414 225.67 249.065C222.005 255.717 217.881 260.521 213.299 263.478C208.81 266.434 204.137 267.911 199.281 267.911C192.318 267.911 185.858 264.955 179.903 259.043C173.947 252.884 168.999 243.399 165.059 230.589C161.211 217.532 158.829 200.903 157.913 180.702H180.453C181.186 188.339 182.514 194.498 184.438 199.179C186.454 203.859 188.882 207.308 191.722 209.525C194.563 211.496 197.587 212.481 200.794 212.481C202.992 212.481 205.191 211.865 207.39 210.634C209.589 209.156 211.421 206.692 212.887 203.243C214.353 199.794 215.087 194.99 215.087 188.831C215.087 184.15 214.674 180.455 213.849 177.745C213.025 174.789 211.834 172.449 210.276 170.725C208.81 168.754 206.978 167.029 204.779 165.551C203.405 164.565 201.984 163.703 200.518 162.964C199.052 162.225 197.632 161.362 196.257 160.377C194.883 159.392 193.509 158.283 192.134 157.052C188.011 154.342 184.072 151.262 180.315 147.813C176.559 144.118 173.214 139.438 170.282 133.771C167.441 128.105 165.197 120.714 163.547 111.599C161.898 102.484 161.074 91.1509 161.074 77.6016C161.074 64.5449 161.898 53.4588 163.547 44.3438C165.288 34.9824 167.579 27.4689 170.42 21.8027C173.352 15.8902 176.513 11.4553 179.903 8.49902C183.385 5.29654 186.821 3.0794 190.211 1.84766C193.692 0.615956 196.899 4.75406e-05 199.831 0Z" fill="white"/>
<path d="M199.831 0C206.336 0 212.109 3.20237 217.148 9.60742C222.279 16.0126 226.402 25.4976 229.517 38.0615C232.724 50.3793 234.648 65.6536 235.29 83.8838H213.713C213.346 77.4786 212.383 72.1821 210.826 67.9941C209.36 63.8062 207.436 60.6039 205.053 58.3867C202.763 56.1696 200.106 55.0606 197.083 55.0605C195.25 55.0605 193.463 55.5528 191.722 56.5381C190.073 57.2771 188.607 58.5099 187.324 60.2344C186.133 61.9588 185.125 64.2989 184.3 67.2549C183.567 69.9647 183.201 73.4137 183.201 77.6016C183.201 82.036 183.751 85.855 184.85 89.0576C185.95 92.0137 187.507 94.6003 189.523 96.8174C191.63 99.0346 194.196 101.253 197.219 103.47C199.327 105.441 201.48 107.042 203.679 108.273C205.97 109.259 208.169 110.614 210.276 112.338C214.124 114.801 217.652 117.758 220.859 121.207C224.157 124.41 227.043 128.598 229.517 133.771C231.991 138.699 233.915 145.35 235.29 153.726C236.756 161.855 237.489 172.202 237.489 184.767C237.489 200.041 236.435 212.974 234.328 223.567C232.22 233.914 229.335 242.414 225.67 249.065C222.005 255.717 217.881 260.521 213.299 263.478C208.81 266.434 204.137 267.911 199.281 267.911C192.318 267.911 185.858 264.955 179.903 259.043C173.947 252.884 168.999 243.399 165.059 230.589C161.211 217.532 158.829 200.903 157.913 180.702H180.453C181.186 188.339 182.514 194.498 184.438 199.179C186.454 203.859 188.882 207.308 191.722 209.525C194.563 211.496 197.587 212.481 200.794 212.481C202.992 212.481 205.191 211.865 207.39 210.634C209.589 209.156 211.421 206.692 212.887 203.243C214.353 199.794 215.087 194.99 215.087 188.831C215.087 184.15 214.674 180.455 213.849 177.745C213.025 174.789 211.834 172.449 210.276 170.725C208.81 168.754 206.978 167.029 204.779 165.551C203.405 164.565 201.984 163.703 200.518 162.964C199.052 162.225 197.632 161.362 196.257 160.377C194.883 159.392 193.509 158.283 192.134 157.052C188.011 154.342 184.072 151.262 180.315 147.813C176.559 144.118 173.214 139.438 170.282 133.771C167.441 128.105 165.197 120.714 163.547 111.599C161.898 102.484 161.074 91.1509 161.074 77.6016C161.074 64.5449 161.898 53.4588 163.547 44.3438C165.288 34.9824 167.579 27.4689 170.42 21.8027C173.352 15.8902 176.513 11.4553 179.903 8.49902C183.385 5.29654 186.821 3.0794 190.211 1.84766C193.692 0.615956 196.899 4.75406e-05 199.831 0Z" stroke="white"/>
<path d="M95.4872 149.292C95.4872 159.885 96.0832 169.986 97.2743 179.594C98.4654 189.201 100.527 197.084 103.459 203.243C106.391 209.155 110.423 212.112 115.554 212.112C120.776 212.112 124.716 209.033 127.373 202.874C130.122 196.715 132 188.831 133.008 179.223C134.107 169.616 134.657 159.638 134.657 149.292V3.32593H156.922V145.966C156.922 171.833 155.455 193.882 152.523 212.112C149.591 230.342 145.057 244.262 138.918 253.87C132.779 263.231 124.899 267.912 115.278 267.912C105.658 267.912 97.7323 263.231 91.5018 253.87C85.2714 244.508 80.6446 230.712 77.621 212.482C74.689 194.252 73.2225 172.079 73.2225 145.966V3.32593H95.4872V149.292Z" fill="white"/>
<path d="M95.4872 149.292C95.4872 159.885 96.0832 169.986 97.2743 179.594C98.4654 189.201 100.527 197.084 103.459 203.243C106.391 209.155 110.423 212.112 115.554 212.112C120.776 212.112 124.716 209.033 127.373 202.874C130.122 196.715 132 188.831 133.008 179.223C134.107 169.616 134.657 159.638 134.657 149.292V3.32593H156.922V145.966C156.922 171.833 155.455 193.882 152.523 212.112C149.591 230.342 145.057 244.262 138.918 253.87C132.779 263.231 124.899 267.912 115.278 267.912C105.658 267.912 97.7323 263.231 91.5018 253.87C85.2714 244.508 80.6446 230.712 77.621 212.482C74.689 194.252 73.2225 172.079 73.2225 145.966V3.32593H95.4872V149.292Z" stroke="white"/>
<path d="M68.7188 171.464C68.7187 187.23 68.0316 201.149 66.6572 213.22C65.3745 225.046 63.3581 235.023 60.6094 243.153C57.8606 251.283 54.4248 257.442 50.3018 261.63C46.1787 265.818 41.3224 267.912 35.7334 267.912C30.7858 267.912 26.1588 266.311 21.8525 263.108C17.5462 259.906 13.7438 254.608 10.4453 247.218C7.23848 239.827 4.71822 229.973 2.88574 217.655C1.05326 205.091 0.0916243 189.57 0 171.094H22.2646C22.2646 177.252 22.5852 183.535 23.2266 189.94C23.8679 196.099 25.059 201.396 26.7998 205.83C28.6323 210.018 31.3819 212.112 35.0469 212.112C38.1619 212.112 40.5442 210.511 42.1934 207.308C43.8426 203.859 44.9415 199.424 45.4912 194.005C46.1325 188.585 46.4541 182.796 46.4541 176.637V3.32593H68.7188V171.464Z" fill="white"/>
<path d="M68.7188 171.464C68.7187 187.23 68.0316 201.149 66.6572 213.22C65.3745 225.046 63.3581 235.023 60.6094 243.153C57.8606 251.283 54.4248 257.442 50.3018 261.63C46.1787 265.818 41.3224 267.912 35.7334 267.912C30.7858 267.912 26.1588 266.311 21.8525 263.108C17.5462 259.906 13.7438 254.608 10.4453 247.218C7.23848 239.827 4.71822 229.973 2.88574 217.655C1.05326 205.091 0.0916243 189.57 0 171.094H22.2646C22.2646 177.252 22.5852 183.535 23.2266 189.94C23.8679 196.099 25.059 201.396 26.7998 205.83C28.6323 210.018 31.3819 212.112 35.0469 212.112C38.1619 212.112 40.5442 210.511 42.1934 207.308C43.8426 203.859 44.9415 199.424 45.4912 194.005C46.1325 188.585 46.4541 182.796 46.4541 176.637V3.32593H68.7188V171.464Z" stroke="white"/>
</svg>
