<svg width="134" height="134" viewBox="0 0 134 134" fill="none" xmlns="http://www.w3.org/2000/svg">
<circle cx="66.5849" cy="66.5849" r="66.5849" fill="#CB5500"/>
<path d="M28.3883 51.4327C28.6876 50.5114 29.991 50.5114 30.2904 51.4327L33.3259 60.7749C33.4597 61.1869 33.8437 61.4659 34.2769 61.4659H44.0999C45.0687 61.4659 45.4714 62.7055 44.6877 63.2749L36.7407 69.0487C36.3902 69.3034 36.2436 69.7548 36.3775 70.1668L39.4129 79.509C39.7123 80.4303 38.6578 81.1965 37.8741 80.6271L29.9271 74.8532C29.5766 74.5986 29.102 74.5986 28.7515 74.8532L20.8045 80.6271C20.0208 81.1965 18.9663 80.4303 19.2657 79.509L22.3012 70.1668C22.435 69.7548 22.2884 69.3034 21.9379 69.0487L13.9909 63.2749C13.2072 62.7055 13.61 61.4659 14.5787 61.4659H24.4017C24.8349 61.4659 25.2189 61.1869 25.3528 60.7749L28.3883 51.4327Z" fill="black"/>
<path d="M101.601 51.0401C101.923 50.1695 103.154 50.1695 103.476 51.0401L107.445 61.7648C107.546 62.0385 107.762 62.2543 108.036 62.3556L118.76 66.3241C119.631 66.6462 119.631 67.8776 118.76 68.1998L108.036 72.1682C107.762 72.2695 107.546 72.4853 107.445 72.7591L103.476 83.4837C103.154 84.3543 101.923 84.3543 101.601 83.4837L97.6322 72.7591C97.5309 72.4853 97.3151 72.2695 97.0414 72.1682L86.3167 68.1998C85.4461 67.8776 85.4461 66.6462 86.3167 66.3241L97.0414 62.3556C97.3151 62.2543 97.5309 62.0385 97.6322 61.7648L101.601 51.0401Z" fill="black"/>
<path d="M60.641 66.6711C60.2965 66.3265 60.2967 65.7681 60.641 65.4238L65.9883 52.6569C66.3326 52.3126 66.8911 52.3124 67.2356 52.6569L72.3175 65.4804C72.662 65.8249 72.6618 66.3833 72.3175 66.7276L67.2356 79.0516C66.8913 79.3959 66.3329 79.3961 65.9884 79.0516L60.641 66.6711Z" fill="black"/>
</svg>
