<svg width="468" height="239" viewBox="0 0 468 239" fill="none" xmlns="http://www.w3.org/2000/svg">
<path d="M467.939 0V163.045C467.939 233.819 456.481 238.118 439.751 238.118C423.021 238.118 411.562 233.819 411.562 163.045V0H434.327V166.352C434.327 180.242 436.848 183.88 439.751 183.88C442.654 183.88 445.175 180.242 445.175 166.352V0H467.939Z" fill="black"/>
<path d="M384.244 0.368408H408.419L399.505 237.75H368L360.899 94.3036H360.596L353.495 237.75H321.915L313 0.368408H337.176L340.122 156.362H340.576L348.206 0.368408H373.289L380.844 156.362H381.297L384.244 0.368408Z" fill="black"/>
<path d="M287.178 0.368408H307.426V237.75H275.695L260.131 84.8084H259.98V237.75H239.733V0.368408H271.237L287.103 149.919H287.178V0.368408Z" fill="black"/>
<path d="M212.361 0.368408H234.875V237.75H212.361V0.368408Z" fill="black"/>
<path d="M208.549 0.368408V50.8967H195.177V237.75H172.663V50.8967H159.215V0.368408H208.549Z" fill="black"/>
<path d="M123.971 157.886V168.197C123.971 180.119 124.954 187.208 129.866 187.208C133.947 187.208 135.534 181.086 135.534 170.775V168.842C135.534 154.664 133.342 153.697 118.303 139.52C105.683 127.598 102.735 114.709 102.735 73.4654V67.9877C102.735 10.6331 114.373 0 130.395 0C150.875 0 156.694 15.4664 156.694 57.0323V75.3987H135.912V66.6988C135.912 49.6214 134.325 45.4325 130.546 45.4325C126.692 45.4325 124.878 48.6547 124.878 59.9323V62.8322C124.878 77.6542 127.599 80.8764 138.179 90.5429C148.381 99.8872 158.13 106.976 158.13 158.208V164.008C158.13 217.174 149.515 238.118 128.959 238.118C111.88 238.118 101.753 224.263 101.753 181.73V157.886H123.971Z" fill="black"/>
<path d="M96.2533 0V163.045C96.2533 233.819 85.074 238.118 68.7524 238.118C52.4307 238.118 41.2515 233.819 41.2515 163.045V0H63.4609V166.352C63.4609 180.242 65.9203 183.88 68.7524 183.88C71.5844 183.88 74.0439 180.242 74.0439 166.352V0H96.2533Z" fill="black"/>
<path d="M0 175.943C2.6343 180.904 4.817 183.549 6.84917 183.549C10.6124 183.549 13.322 177.927 13.322 160.73V0H35.7512V163.706C35.7512 229.519 23.0313 238.118 15.1284 238.118C8.20395 238.118 3.46222 229.519 0 223.566V175.943Z" fill="black"/>
</svg>
