<svg width="153" height="108" viewBox="0 0 153 108" fill="none" xmlns="http://www.w3.org/2000/svg">
<circle cx="72.2837" cy="47.0117" r="47.0117" fill="#CB5500"/>
<path d="M49.2917 36.927C49.591 36.0057 50.8944 36.0057 51.1938 36.9271L52.9914 42.4595C53.1253 42.8715 53.5092 43.1505 53.9425 43.1505H59.7596C60.7284 43.1505 61.1312 44.3901 60.3474 44.9595L55.6412 48.3788C55.2907 48.6334 55.1441 49.0848 55.278 49.4968L57.0756 55.0293C57.3749 55.9506 56.3204 56.7167 55.5367 56.1473L50.8305 52.7281C50.48 52.4734 50.0054 52.4734 49.655 52.7281L44.9488 56.1473C44.165 56.7167 43.1106 55.9506 43.4099 55.0293L45.2075 49.4968C45.3414 49.0848 45.1947 48.6334 44.8442 48.3788L40.138 44.9595C39.3543 44.3901 39.7571 43.1505 40.7258 43.1505H46.543C46.9762 43.1505 47.3602 42.8715 47.4941 42.4595L49.2917 36.927Z" fill="black"/>
<path d="M95.3049 36.5345C95.627 35.6639 96.8584 35.6639 97.1806 36.5345L99.6599 43.2348C99.7612 43.5085 99.977 43.7243 100.251 43.8256L106.951 46.3049C107.822 46.627 107.822 47.8584 106.951 48.1806L100.251 50.6599C99.977 50.7612 99.7612 50.977 99.6599 51.2507L97.1806 57.951C96.8584 58.8216 95.627 58.8216 95.3049 57.951L92.8256 51.2507C92.7243 50.977 92.5085 50.7612 92.2348 50.6599L85.5345 48.1806C84.6639 47.8584 84.6639 46.627 85.5345 46.3049L92.2348 43.8256C92.5085 43.7243 92.7243 43.5085 92.8256 43.2348L95.3049 36.5345Z" fill="black"/>
<path d="M69.5424 47.3349C69.2992 47.0916 69.2993 46.6974 69.5424 46.4543L73.3179 37.4403C73.5609 37.1972 73.9552 37.1971 74.1985 37.4403L77.7865 46.4942C78.0297 46.7375 78.0296 47.1317 77.7865 47.3748L74.1985 56.0761C73.9554 56.3192 73.5611 56.3193 73.3179 56.0761L69.5424 47.3349Z" fill="black"/>
<path d="M111 108V61.817H125.833V68.5682H126.093C127.169 66.1888 128.747 64.3397 130.829 63.021C132.945 61.6737 135.6 61 138.792 61C143.233 61 146.703 62.3044 149.201 64.9131C151.734 67.4931 153 71.0335 153 75.5343V108H138.115V78.0284C138.115 76.0503 137.647 74.488 136.71 73.3413C135.773 72.1659 134.264 71.5782 132.182 71.5782C130.829 71.5782 129.667 71.8649 128.695 72.4382C127.758 72.9829 127.047 73.7856 126.561 74.8463C126.076 75.8783 125.833 77.0823 125.833 78.4584V108H111Z" fill="white"/>
<path d="M89 108V62H96H103V108H89Z" fill="white"/>
<path d="M64.6508 108C63.8496 108 63.0309 107.989 62.1948 107.968C61.3238 107.946 60.5922 107.903 60 107.839V100.757C60.2787 100.779 60.5574 100.789 60.8361 100.789C61.1148 100.811 61.4109 100.822 61.7245 100.822C63.8147 100.822 65.2257 100.51 65.9572 99.888C66.7237 99.2871 67.1069 98.4502 67.1069 97.3772V62H82V97.2484C82 100.94 80.4846 103.654 77.4537 105.393C74.4576 107.131 70.19 108 64.6508 108Z" fill="white"/>
<path d="M43 108V62H58V108H43Z" fill="white"/>
<path d="M0 108V100.719L20.2191 71.7654V71.5512H0.513176V62H36.2302V70.0521L16.6269 98.2346V98.4916H37V108H0Z" fill="white"/>
</svg>
