<svg width="670" height="271" viewBox="0 0 670 271" fill="none" xmlns="http://www.w3.org/2000/svg">
<path d="M59.0369 37.2815V59.5917H151.253V37.2815H59.0369ZM26.3149 0H186.035V97.1668H26.3149V0ZM3.20355 164.097H209.375V200.792H3.20355V164.097ZM17.8484 112.138H195.188V148.539H17.8484V112.138ZM86.4959 121.532H121.049C120.438 138.167 119.294 153.334 117.616 167.033C116.091 180.732 113.345 193.061 109.378 204.021C105.565 214.98 99.9204 224.765 92.4454 233.376C84.9704 241.792 74.9784 249.033 62.4693 255.099C50.1127 261.362 34.6289 266.45 16.0178 270.364C14.7974 264.885 12.5854 258.622 9.38184 251.577C6.17828 244.727 3.051 239.15 0 234.844C16.3229 231.909 29.7473 228.288 40.2732 223.983C50.7992 219.481 59.1132 214.197 65.2152 208.131C71.3172 202.064 75.7412 194.921 78.4871 186.701C81.3855 178.286 83.2924 168.696 84.2077 157.933C85.2755 147.169 86.0383 135.035 86.4959 121.532ZM124.252 168.207C127.761 182.298 132.947 193.844 139.812 202.847C146.83 211.849 156.211 218.699 167.958 223.395C179.704 227.897 194.501 230.636 212.35 231.615C210.062 234.551 207.697 238.269 205.256 242.77C202.968 247.271 200.832 251.87 198.849 256.567C196.866 261.46 195.264 265.863 194.044 269.777C178.636 267.624 165.441 264.2 154.457 259.503C143.473 255.002 134.168 248.837 126.54 241.009C118.913 233.181 112.506 223.591 107.319 212.24C102.285 200.89 97.8609 187.386 94.0472 171.73L124.252 168.207Z" fill="white"/>
<path d="M229.35 115.196H442.615V158.055H229.35V115.196ZM318.591 68.8142H353.602V219.114C353.602 230.465 352.458 239.272 350.169 245.534C347.881 251.993 343.61 256.885 337.355 260.212C331.253 263.539 324.083 265.692 315.846 266.67C307.608 267.649 298.379 268.04 288.158 267.845C287.548 263.539 286.403 258.646 284.725 253.167C283.2 247.883 281.445 242.599 279.462 237.315C277.632 232.031 275.801 227.53 273.971 223.811C278.852 224.007 283.886 224.203 289.073 224.398C294.26 224.594 298.912 224.692 303.031 224.692C307.303 224.692 310.277 224.692 311.956 224.692C314.549 224.692 316.303 224.301 317.219 223.518C318.134 222.539 318.591 220.778 318.591 218.234V68.8142ZM253.605 4.81915H394.79V46.7975H253.605V4.81915ZM384.035 4.81915H392.96L400.511 2.4707L425.91 27.1293C418.741 36.9145 410.579 46.7975 401.426 56.7784C392.426 66.7593 383.044 76.2509 373.281 85.2532C363.517 94.2556 353.831 102.084 344.22 108.738C342.542 105.606 340.406 102.182 337.813 98.4632C335.219 94.5492 332.55 90.733 329.804 87.0146C327.058 83.2962 324.617 80.165 322.481 77.6208C330.567 72.3368 338.652 65.9765 346.737 58.5397C354.975 50.9073 362.373 43.177 368.933 35.3489C375.645 27.5207 380.679 20.5733 384.035 14.5065V4.81915Z" fill="white"/>
<path d="M486.158 137.824H645.879V268.163H610.411V173.051H519.796V269.337H486.158V137.824ZM506.524 183.325H622.081V214.735H506.524V183.325ZM505.837 225.01H621.394V260.237H505.837V225.01ZM470.827 1.02734H659.379V38.896H470.827V1.02734ZM459.615 90.2681H669.905V129.311H459.615V90.2681ZM523.915 14.5309H556.408V109.643H523.915V14.5309ZM570.366 14.8244H603.317V109.936H570.366V14.8244ZM479.751 46.8219L507.897 37.1346C510.643 43.5928 513.084 50.736 515.219 58.5641C517.355 66.3923 518.88 73.2419 519.796 79.113L490.049 90.5617C489.438 84.4948 488.142 77.3517 486.158 69.1321C484.328 60.9126 482.192 53.4759 479.751 46.8219ZM619.335 38.6024L650.226 48.8768C647.023 57.0964 643.895 64.9245 640.844 72.3612C637.793 79.6023 634.971 85.8648 632.378 91.1488L605.605 81.1679C607.283 77.2538 608.961 72.8505 610.639 67.9579C612.317 63.0653 613.919 58.0749 615.445 52.9866C617.123 47.7026 618.419 42.9079 619.335 38.6024Z" fill="white"/>
</svg>
