<svg width="672" height="263" viewBox="0 0 672 263" fill="none" xmlns="http://www.w3.org/2000/svg">
<path d="M487.25 134.468H647.298V260.959H611.757V168.655H520.956V262.098H487.25V134.468ZM507.657 178.626H623.451V209.109H507.657V178.626ZM506.97 219.08H622.763V253.267H506.97V219.08ZM471.888 1.70972H660.826V38.4604H471.888V1.70972ZM460.652 88.316H671.374V126.206H460.652V88.316ZM525.084 14.8146H557.644V107.119H525.084V14.8146ZM571.631 15.0995H604.649V107.404H571.631V15.0995ZM480.83 46.1524L509.033 36.7511C511.785 43.0187 514.231 49.951 516.371 57.548C518.511 65.1451 520.039 71.7925 520.956 77.4902L491.148 88.6009C490.537 82.7132 489.237 75.7809 487.25 67.804C485.416 59.8271 483.276 52.6099 480.83 46.1524ZM620.699 38.1755L651.654 48.1467C648.444 56.1236 645.31 63.7206 642.253 70.9378C639.196 77.9651 636.368 84.0427 633.769 89.1707L606.942 79.4845C608.623 75.686 610.305 71.4126 611.986 66.6645C613.668 61.9163 615.273 57.0732 616.802 52.1351C618.483 47.0071 619.782 42.3539 620.699 38.1755Z" fill="#CB5500"/>
<path d="M229.524 114.81H443.226V156.404H229.524V114.81ZM318.948 69.7976H354.03V215.661C354.03 226.677 352.884 235.223 350.591 241.301C348.298 247.568 344.018 252.317 337.751 255.545C331.636 258.774 324.452 260.863 316.197 261.813C307.942 262.763 298.694 263.142 288.452 262.952C287.841 258.774 286.694 254.026 285.013 248.708C283.484 243.58 281.726 238.452 279.739 233.324C277.905 228.196 276.07 223.828 274.236 220.219C279.128 220.409 284.172 220.599 289.369 220.789C294.567 220.979 299.229 221.074 303.356 221.074C307.637 221.074 310.617 221.074 312.299 221.074C314.898 221.074 316.656 220.694 317.573 219.934C318.49 218.985 318.948 217.275 318.948 214.806V69.7976ZM253.829 7.69171H395.303V48.4309H253.829V7.69171ZM384.527 7.69171H393.469L401.036 5.4126L426.487 29.3433C419.303 38.8396 411.125 48.4309 401.953 58.1171C392.934 67.8033 383.533 77.0147 373.75 85.7513C363.967 94.488 354.26 102.085 344.629 108.542C342.948 105.504 340.808 102.18 338.209 98.5714C335.611 94.7729 332.935 91.0693 330.184 87.4607C327.432 83.8521 324.987 80.8133 322.846 78.3442C330.948 73.2162 339.05 67.0436 347.152 59.8264C355.406 52.4193 362.82 44.9172 369.393 37.3202C376.119 29.7231 381.164 22.9808 384.527 17.0931V7.69171Z" fill="#CB5500"/>
<path d="M59.1579 36.1809V57.8325H151.563V36.1809H59.1579ZM26.3688 0H186.416V94.2983H26.3688V0ZM3.21012 159.253H209.804V194.864H3.21012V159.253ZM17.885 108.828H195.588V144.154H17.885V108.828ZM86.6732 117.944H121.297C120.685 134.088 119.539 148.807 117.857 162.102C116.329 175.397 113.577 187.362 109.603 197.998C105.781 208.634 100.125 218.13 92.6349 226.487C85.1446 234.654 75.1321 241.681 62.5973 247.569C50.2154 253.646 34.6999 258.584 16.0506 262.383C14.8277 257.065 12.6112 250.987 9.40107 244.15C6.19095 237.503 3.05726 232.09 0 227.911C16.3563 225.062 29.8083 221.549 40.3558 217.37C50.9033 213.002 59.2344 207.874 65.3489 201.986C71.4634 196.099 75.8964 189.166 78.6479 181.19C81.5523 173.023 83.4631 163.716 84.3803 153.27C85.4503 142.824 86.2146 131.049 86.6732 117.944ZM124.507 163.242C128.023 176.916 133.22 188.122 140.099 196.858C147.131 205.595 156.532 212.242 168.302 216.801C180.072 221.169 194.9 223.828 212.785 224.778C210.492 227.626 208.123 231.235 205.677 235.603C203.384 239.972 201.244 244.435 199.257 248.993C197.269 253.741 195.664 258.015 194.442 261.813C179.002 259.724 165.78 256.4 154.774 251.842C143.768 247.474 134.443 241.491 126.8 233.894C119.157 226.297 112.736 216.991 107.539 205.975C102.495 194.959 98.0615 181.854 94.24 166.66L124.507 163.242Z" fill="#CB5500"/>
</svg>
