<svg width="720" height="243" viewBox="0 0 720 243" fill="none" xmlns="http://www.w3.org/2000/svg">
<path d="M0 178.384C2.6343 183.345 4.817 185.99 6.84917 185.99C10.6124 185.99 13.322 180.368 13.322 163.171V2.44092H35.7512V166.147C35.7512 231.96 23.0313 240.559 15.1284 240.559C8.20395 240.559 3.46222 231.96 0 226.007V178.384Z" fill="white"/>
<path d="M94.7528 2.44092V165.486C94.7528 236.26 83.5735 240.559 67.2519 240.559C50.9302 240.559 39.751 236.26 39.751 165.486V2.44092H61.9604V168.793C61.9604 182.683 64.4198 186.321 67.2519 186.321C70.0839 186.321 72.5434 182.683 72.5434 168.793V2.44092H94.7528Z" fill="white"/>
<path d="M120.971 160.327V170.638C120.971 182.56 121.954 189.649 126.866 189.649C130.947 189.649 132.534 183.527 132.534 173.216V171.282C132.534 157.105 130.342 156.138 115.303 141.961C102.683 130.039 99.7354 117.15 99.7354 75.9063V70.4286C99.7354 13.0741 111.373 2.44092 127.395 2.44092C147.875 2.44092 153.694 17.9073 153.694 59.4733V77.8396H132.912V69.1398C132.912 52.0623 131.325 47.8735 127.546 47.8735C123.692 47.8735 121.878 51.0956 121.878 62.3732V65.2732C121.878 80.0951 124.599 83.3173 135.179 92.9838C145.381 102.328 155.13 109.417 155.13 160.649V166.449C155.13 219.615 146.515 240.559 125.959 240.559C108.88 240.559 98.7529 226.704 98.7529 184.171V160.327H120.971Z" fill="white"/>
<path d="M208.464 2.80927V53.3376H195.092V240.191H172.578V53.3376H159.13V2.80927H208.464Z" fill="white"/>
<path d="M212.464 2.80927H234.978V240.191H212.464V2.80927Z" fill="white"/>
<path d="M286.423 2.80927H306.67V240.191H274.939L259.376 87.2492H259.225V240.191H238.978V2.80927H270.482L286.347 152.36H286.423V2.80927Z" fill="white"/>
<path d="M491.848 242.251V4.21113H515.898V39.0083H516.32C518.064 26.7443 520.623 17.2139 523.999 10.417C527.431 3.47233 531.734 0 536.91 0C544.111 0 549.737 6.72303 553.787 20.1691C557.894 33.4674 559.947 51.7156 559.947 74.9137V242.251H535.813V87.7687C535.813 77.5734 535.053 69.5205 533.534 63.6102C532.015 57.5521 529.568 54.523 526.193 54.523C523.999 54.523 522.114 56.0006 520.539 58.9558C519.02 61.7632 517.867 65.9004 517.079 71.3675C516.292 76.6868 515.898 82.8927 515.898 89.9851V242.251H491.848Z" fill="#1E1E1E"/>
<path d="M454.833 242.114V4.77533H467.179H479.526V242.114H454.833Z" fill="#1E1E1E"/>
<path d="M416.43 243C415.145 243 413.833 242.944 412.492 242.833C411.095 242.722 409.922 242.5 408.973 242.166V205.491C409.42 205.602 409.866 205.658 410.313 205.658C410.76 205.769 411.235 205.824 411.738 205.824C415.09 205.824 417.352 204.213 418.525 200.99C419.754 197.878 420.368 193.543 420.368 187.987V4.77533H444.249V187.32C444.249 206.435 441.819 220.494 436.959 229.497C432.155 238.499 425.312 243 416.43 243Z" fill="#1E1E1E"/>
<path d="M381.977 242.251V4.21106H406.027V242.251H381.977Z" fill="#1E1E1E"/>
<path d="M310.67 242.251V204.572L343.919 54.7446V53.6364H311.514V4.21112H370.247V45.8791L338.012 191.717V193.047H371.513V242.251H310.67Z" fill="#1E1E1E"/>
<path d="M635.191 2.80927H659.367L650.452 240.191H618.948L611.846 96.7445H611.544L604.442 240.191H572.862L563.947 2.80927H588.123L591.07 158.803H591.523L599.153 2.80927H624.236L631.791 158.803H632.244L635.191 2.80927Z" fill="white"/>
<path d="M719.744 2.44092V165.486C719.744 236.26 708.285 240.559 691.555 240.559C674.825 240.559 663.367 236.26 663.367 165.486V2.44092H686.131V168.793C686.131 182.683 688.652 186.321 691.555 186.321C694.458 186.321 696.979 182.683 696.979 168.793V2.44092H719.744Z" fill="white"/>
</svg>
