<svg width="672" height="270" viewBox="0 0 672 270" fill="none" xmlns="http://www.w3.org/2000/svg">
<path d="M68.7188 170.845C68.7187 186.611 68.0316 200.53 66.6572 212.602C65.3745 224.427 63.3581 234.404 60.6094 242.534C57.8606 250.664 54.4248 256.823 50.3018 261.011C46.1787 265.199 41.3225 267.293 35.7334 267.293C30.7858 267.293 26.1588 265.692 21.8525 262.489C17.5462 259.287 13.7438 253.989 10.4453 246.599C7.23848 239.208 4.71822 229.354 2.88574 217.036C1.05326 204.472 0.0916243 188.951 0 170.475H22.2646C22.2646 176.633 22.5852 182.916 23.2266 189.321C23.8679 195.48 25.059 200.777 26.7998 205.211C28.6323 209.399 31.3819 211.493 35.0469 211.493C38.1619 211.493 40.5442 209.892 42.1934 206.689C43.8426 203.24 44.9415 198.806 45.4912 193.386C46.1325 187.966 46.4541 182.177 46.4541 176.019V2.70703H68.7188V170.845Z" fill="white"/>
<path d="M68.7188 170.845C68.7187 186.611 68.0316 200.53 66.6572 212.602C65.3745 224.427 63.3581 234.404 60.6094 242.534C57.8606 250.664 54.4248 256.823 50.3018 261.011C46.1787 265.199 41.3225 267.293 35.7334 267.293C30.7858 267.293 26.1588 265.692 21.8525 262.489C17.5462 259.287 13.7438 253.989 10.4453 246.599C7.23848 239.208 4.71822 229.354 2.88574 217.036C1.05326 204.472 0.0916243 188.951 0 170.475H22.2646C22.2646 176.633 22.5852 182.916 23.2266 189.321C23.8679 195.48 25.059 200.777 26.7998 205.211C28.6323 209.399 31.3819 211.493 35.0469 211.493C38.1619 211.493 40.5442 209.892 42.1934 206.689C43.8426 203.24 44.9415 198.806 45.4912 193.386C46.1325 187.966 46.4541 182.177 46.4541 176.019V2.70703H68.7188V170.845Z" stroke="#CB5500"/>
<path d="M94.9834 148.673C94.9834 159.266 95.5794 169.367 96.7705 178.975C97.9616 188.582 100.023 196.465 102.955 202.624C105.887 208.537 109.919 211.493 115.05 211.493C120.272 211.493 124.212 208.414 126.869 202.255C129.618 196.096 131.496 188.212 132.504 178.604C133.603 168.997 134.153 159.02 134.153 148.673V2.70703H156.418V145.347C156.418 171.214 154.952 193.263 152.02 211.493C149.088 229.723 144.553 243.643 138.414 253.251C132.275 262.612 124.395 267.293 114.774 267.293C105.154 267.293 97.2285 262.612 90.998 253.251C84.7676 243.89 80.1408 230.093 77.1172 211.863C74.1852 193.633 72.7188 171.46 72.7188 145.347V2.70703H94.9834V148.673Z" fill="white"/>
<path d="M94.9834 148.673C94.9834 159.266 95.5794 169.367 96.7705 178.975C97.9616 188.582 100.023 196.465 102.955 202.624C105.887 208.537 109.919 211.493 115.05 211.493C120.272 211.493 124.212 208.414 126.869 202.255C129.618 196.096 131.496 188.212 132.504 178.604C133.603 168.997 134.153 159.02 134.153 148.673V2.70703H156.418V145.347C156.418 171.214 154.952 193.263 152.02 211.493C149.088 229.723 144.553 243.643 138.414 253.251C132.275 262.612 124.395 267.293 114.774 267.293C105.154 267.293 97.2285 262.612 90.998 253.251C84.7676 243.89 80.1408 230.093 77.1172 211.863C74.1852 193.633 72.7188 171.46 72.7188 145.347V2.70703H94.9834V148.673Z" stroke="#CB5500"/>
<path d="M202.336 1.04443C208.841 1.04443 214.614 4.2468 219.653 10.6519C224.784 17.057 228.907 26.542 232.022 39.106C235.229 51.4237 237.154 66.698 237.795 84.9282H216.218C215.851 78.5231 214.889 73.2266 213.331 69.0386C211.865 64.8506 209.941 61.6483 207.559 59.4312C205.268 57.214 202.611 56.1051 199.588 56.105C197.755 56.105 195.968 56.5972 194.228 57.5825C192.578 58.3216 191.112 59.5543 189.829 61.2788C188.638 63.0032 187.63 65.3434 186.806 68.2993C186.073 71.0091 185.706 74.4581 185.706 78.646C185.706 83.0804 186.256 86.8994 187.355 90.1021C188.455 93.0582 190.013 95.6447 192.028 97.8618C194.136 100.079 196.701 102.297 199.725 104.514C201.832 106.485 203.986 108.086 206.185 109.318C208.475 110.303 210.674 111.658 212.781 113.382C216.629 115.846 220.157 118.802 223.364 122.251C226.663 125.454 229.549 129.643 232.022 134.816C234.496 139.743 236.421 146.394 237.795 154.77C239.261 162.9 239.994 173.247 239.994 185.811C239.994 201.085 238.94 214.019 236.833 224.612C234.726 234.959 231.84 243.458 228.175 250.11C224.51 256.761 220.386 261.566 215.805 264.522C211.315 267.478 206.642 268.956 201.786 268.956C194.823 268.955 188.364 266 182.408 260.087C176.453 253.929 171.504 244.444 167.564 231.633C163.716 218.577 161.334 201.948 160.418 181.747H182.958C183.691 189.383 185.019 195.542 186.943 200.223C188.959 204.904 191.387 208.353 194.228 210.57C197.068 212.541 200.091 213.526 203.298 213.526C205.497 213.526 207.697 212.91 209.896 211.678C212.094 210.2 213.927 207.736 215.393 204.288C216.859 200.839 217.592 196.034 217.592 189.875C217.592 185.195 217.179 181.499 216.354 178.79C215.53 175.833 214.339 173.493 212.781 171.769C211.315 169.798 209.483 168.073 207.284 166.595C205.91 165.61 204.489 164.747 203.023 164.008C201.557 163.269 200.137 162.407 198.763 161.421C197.388 160.436 196.014 159.328 194.64 158.096C190.517 155.386 186.577 152.307 182.82 148.858C179.064 145.163 175.719 140.482 172.787 134.816C169.947 129.15 167.702 121.758 166.053 112.643C164.404 103.528 163.579 92.1954 163.579 78.646C163.579 65.5893 164.404 54.5032 166.053 45.3882C167.794 36.0269 170.085 28.5133 172.925 22.8472C175.857 16.9346 179.018 12.4997 182.408 9.54346C185.89 6.34097 189.326 4.12383 192.716 2.89209C196.197 1.66039 199.404 1.04448 202.336 1.04443Z" fill="white"/>
<path d="M202.336 1.04443C208.841 1.04443 214.614 4.2468 219.653 10.6519C224.784 17.057 228.907 26.542 232.022 39.106C235.229 51.4237 237.154 66.698 237.795 84.9282H216.218C215.851 78.5231 214.889 73.2266 213.331 69.0386C211.865 64.8506 209.941 61.6483 207.559 59.4312C205.268 57.214 202.611 56.1051 199.588 56.105C197.755 56.105 195.968 56.5972 194.228 57.5825C192.578 58.3216 191.112 59.5543 189.829 61.2788C188.638 63.0032 187.63 65.3434 186.806 68.2993C186.073 71.0091 185.706 74.4581 185.706 78.646C185.706 83.0804 186.256 86.8994 187.355 90.1021C188.455 93.0582 190.013 95.6447 192.028 97.8618C194.136 100.079 196.701 102.297 199.725 104.514C201.832 106.485 203.986 108.086 206.185 109.318C208.475 110.303 210.674 111.658 212.781 113.382C216.629 115.846 220.157 118.802 223.364 122.251C226.663 125.454 229.549 129.643 232.022 134.816C234.496 139.743 236.421 146.394 237.795 154.77C239.261 162.9 239.994 173.247 239.994 185.811C239.994 201.085 238.94 214.019 236.833 224.612C234.726 234.959 231.84 243.458 228.175 250.11C224.51 256.761 220.386 261.566 215.805 264.522C211.315 267.478 206.642 268.956 201.786 268.956C194.823 268.955 188.364 266 182.408 260.087C176.453 253.929 171.504 244.444 167.564 231.633C163.716 218.577 161.334 201.948 160.418 181.747H182.958C183.691 189.383 185.019 195.542 186.943 200.223C188.959 204.904 191.387 208.353 194.228 210.57C197.068 212.541 200.091 213.526 203.298 213.526C205.497 213.526 207.697 212.91 209.896 211.678C212.094 210.2 213.927 207.736 215.393 204.288C216.859 200.839 217.592 196.034 217.592 189.875C217.592 185.195 217.179 181.499 216.354 178.79C215.53 175.833 214.339 173.493 212.781 171.769C211.315 169.798 209.483 168.073 207.284 166.595C205.91 165.61 204.489 164.747 203.023 164.008C201.557 163.269 200.137 162.407 198.763 161.421C197.388 160.436 196.014 159.328 194.64 158.096C190.517 155.386 186.577 152.307 182.82 148.858C179.064 145.163 175.719 140.482 172.787 134.816C169.947 129.15 167.702 121.758 166.053 112.643C164.404 103.528 163.579 92.1954 163.579 78.646C163.579 65.5893 164.404 54.5032 166.053 45.3882C167.794 36.0269 170.085 28.5133 172.925 22.8472C175.857 16.9346 179.018 12.4997 182.408 9.54346C185.89 6.34097 189.326 4.12383 192.716 2.89209C196.197 1.66039 199.404 1.04448 202.336 1.04443Z" stroke="#CB5500"/>
<path d="M324.642 59.2378H295.253V266.47H273.109V59.2378H243.994V3.52979H324.642V59.2378Z" fill="white"/>
<path d="M324.642 59.2378H295.253V266.47H273.109V59.2378H243.994V3.52979H324.642V59.2378Z" stroke="#CB5500"/>
<path d="M351.389 267.478H328.642V2.52246H351.389V267.478Z" fill="white"/>
<path d="M351.389 267.478H328.642V2.52246H351.389V267.478Z" stroke="#CB5500"/>
<path d="M419.876 167.933V2.52246H442.24V267.478H421.248L377.616 103.939V267.478H355.389V2.52246H376.93L419.876 167.933Z" fill="white"/>
<path d="M419.876 167.933V2.52246H442.24V267.478H421.248L377.616 103.939V267.478H355.389V2.52246H376.93L419.876 167.933Z" stroke="#CB5500"/>
<path d="M486.196 198.245L501.794 2.52246H530.255L545.717 198.245L560.358 2.52246H583.756L561.179 267.478H531.076L515.614 77.7432L500.29 267.478H469.091L446.241 2.52246H470.871L486.196 198.245Z" fill="white"/>
<path d="M486.196 198.245L501.794 2.52246H530.255L545.717 198.245L560.358 2.52246H583.756L561.179 267.478H531.076L515.614 77.7432L500.29 267.478H469.091L446.241 2.52246H470.871L486.196 198.245Z" stroke="#CB5500"/>
<path d="M610.034 148.848C610.034 159.577 610.63 169.808 611.822 179.539C613.014 189.269 615.077 197.254 618.011 203.492C620.945 209.48 624.978 212.474 630.112 212.474C635.338 212.474 639.28 209.355 641.938 203.118C644.689 196.88 646.569 188.895 647.577 179.164C648.677 169.433 649.228 159.328 649.228 148.848V1.01123H671.506V145.48C671.506 171.679 670.039 194.01 667.105 212.474C664.172 230.938 659.633 245.036 653.49 254.767C647.348 264.248 639.463 268.989 629.837 268.989C620.211 268.989 612.28 264.248 606.046 254.767C599.812 245.286 595.182 231.312 592.156 212.848C589.223 194.384 587.756 171.928 587.756 145.48V1.01123H610.034V148.848Z" fill="white"/>
<path d="M610.034 148.848C610.034 159.577 610.63 169.808 611.822 179.539C613.014 189.269 615.077 197.254 618.011 203.492C620.945 209.48 624.978 212.474 630.112 212.474C635.338 212.474 639.28 209.355 641.938 203.118C644.689 196.88 646.569 188.895 647.577 179.164C648.677 169.433 649.228 159.328 649.228 148.848V1.01123H671.506V145.48C671.506 171.679 670.039 194.01 667.105 212.474C664.172 230.938 659.633 245.036 653.49 254.767C647.348 264.248 639.463 268.989 629.837 268.989C620.211 268.989 612.28 264.248 606.046 254.767C599.812 245.286 595.182 231.312 592.156 212.848C589.223 194.384 587.756 171.928 587.756 145.48V1.01123H610.034V148.848Z" stroke="#CB5500"/>
</svg>
