<svg width="670" height="270" viewBox="0 0 670 270" fill="none" xmlns="http://www.w3.org/2000/svg">
<path d="M608.528 150.302C608.528 160.992 609.125 171.184 610.316 180.879C611.508 190.575 613.571 198.53 616.505 204.745C619.439 210.711 623.472 213.694 628.606 213.694C633.832 213.694 637.774 210.586 640.433 204.372C643.183 198.157 645.063 190.201 646.071 180.506C647.171 170.811 647.722 160.743 647.722 150.302V3.01123H670V146.947C670 173.049 668.533 195.298 665.6 213.694C662.666 232.09 658.127 246.135 651.984 255.831C645.842 265.277 637.957 270 628.331 270C618.705 270 610.774 265.277 604.54 255.831C598.306 246.384 593.676 232.463 590.65 214.067C587.717 195.671 586.25 173.298 586.25 146.947V3.01123H608.528V150.302Z" fill="#CD5909"/>
<path d="M608.528 150.302C608.528 160.992 609.125 171.184 610.316 180.879C611.508 190.575 613.571 198.53 616.505 204.745C619.439 210.711 623.472 213.694 628.606 213.694C633.832 213.694 637.774 210.586 640.433 204.372C643.183 198.157 645.063 190.201 646.071 180.506C647.171 170.811 647.722 160.743 647.722 150.302V3.01123H670V146.947C670 173.049 668.533 195.298 665.6 213.694C662.666 232.09 658.127 246.135 651.984 255.831C645.842 265.277 637.957 270 628.331 270C618.705 270 610.774 265.277 604.54 255.831C598.306 246.384 593.676 232.463 590.65 214.067C587.717 195.671 586.25 173.298 586.25 146.947V3.01123H608.528V150.302Z" stroke="#CB5500"/>
<path d="M483.52 198.012L499.119 3.01123H527.58L543.042 198.012L557.682 3.01123H581.081L558.503 266.989H528.4L512.938 77.9536L497.614 266.989H466.416L443.565 3.01123H468.195L483.52 198.012Z" fill="#CD5909"/>
<path d="M483.52 198.012L499.119 3.01123H527.58L543.042 198.012L557.682 3.01123H581.081L558.503 266.989H528.4L512.938 77.9536L497.614 266.989H466.416L443.565 3.01123H468.195L483.52 198.012Z" stroke="#CB5500"/>
<path d="M414.997 167.811V3.01123H437.361V266.989H416.369L372.737 104.053V266.989H350.509V3.01123H372.05L414.997 167.811Z" fill="#CD5909"/>
<path d="M414.997 167.811V3.01123H437.361V266.989H416.369L372.737 104.053V266.989H350.509V3.01123H372.05L414.997 167.811Z" stroke="#CB5500"/>
<path d="M345.34 266.989H322.593V3.01123H345.34V266.989Z" fill="#CD5909"/>
<path d="M345.34 266.989H322.593V3.01123H345.34V266.989Z" stroke="#CB5500"/>
<path d="M318.457 58.5132H289.068V264.982H266.924V58.5132H237.809V3.01123H318.457V58.5132Z" fill="#CD5909"/>
<path d="M318.457 58.5132H289.068V264.982H266.924V58.5132H237.809V3.01123H318.457V58.5132Z" stroke="#CB5500"/>
<path d="M199.831 0C206.336 0 212.109 3.19073 217.148 9.57227C222.279 15.9539 226.402 25.4041 229.517 37.9219C232.724 50.1941 234.648 65.4115 235.29 83.5742H213.712C213.346 77.1927 212.383 71.9157 210.826 67.7432C209.36 63.5706 207.435 60.3799 205.053 58.1709C202.763 55.962 200.106 54.8575 197.083 54.8574C195.25 54.8574 193.463 55.3483 191.722 56.3301C190.073 57.0664 188.606 58.2936 187.324 60.0117C186.133 61.7298 185.125 64.0616 184.3 67.0068C183.567 69.7067 183.201 73.1429 183.201 77.3154C183.201 81.7333 183.751 85.5378 184.85 88.7285C185.95 91.6737 187.507 94.251 189.523 96.46C191.63 98.669 194.196 100.879 197.219 103.088C199.327 105.051 201.48 106.647 203.679 107.874C205.97 108.856 208.169 110.206 210.276 111.924C214.124 114.378 217.652 117.324 220.859 120.76C224.157 123.951 227.043 128.123 229.517 133.277C231.991 138.186 233.915 144.813 235.29 153.158C236.756 161.258 237.489 171.567 237.489 184.085C237.489 199.302 236.435 212.188 234.328 222.742C232.22 233.051 229.334 241.519 225.669 248.146C222.004 254.774 217.881 259.56 213.299 262.505C208.81 265.45 204.137 266.923 199.281 266.923C192.318 266.923 185.858 263.977 179.903 258.087C173.947 251.951 168.999 242.501 165.059 229.738C161.211 216.73 158.829 200.162 157.913 180.035H180.453C181.186 187.644 182.514 193.78 184.438 198.443C186.454 203.107 188.882 206.543 191.722 208.752C194.563 210.716 197.587 211.697 200.793 211.697C202.992 211.697 205.191 211.084 207.39 209.856C209.589 208.384 211.421 205.929 212.887 202.493C214.353 199.057 215.086 194.271 215.086 188.135C215.086 183.471 214.674 179.79 213.849 177.09C213.025 174.145 211.833 171.813 210.276 170.095C208.81 168.131 206.978 166.412 204.779 164.939C203.404 163.958 201.984 163.099 200.518 162.362C199.052 161.626 197.632 160.767 196.257 159.785C194.883 158.803 193.509 157.699 192.134 156.472C188.011 153.772 184.071 150.704 180.315 147.268C176.558 143.586 173.214 138.923 170.282 133.277C167.441 127.632 165.197 120.269 163.547 111.188C161.898 102.106 161.074 90.815 161.074 77.3154C161.074 64.307 161.898 53.2621 163.547 44.1807C165.288 34.8537 167.579 27.3669 170.419 21.7217C173.351 15.8311 176.513 11.4131 179.903 8.46777C183.384 5.27708 186.82 3.06802 190.21 1.84082C193.692 0.613666 196.899 4.71848e-05 199.831 0Z" fill="#CD5909"/>
<path d="M199.831 0C206.336 0 212.109 3.19073 217.148 9.57227C222.279 15.9539 226.402 25.4041 229.517 37.9219C232.724 50.1941 234.648 65.4115 235.29 83.5742H213.712C213.346 77.1927 212.383 71.9157 210.826 67.7432C209.36 63.5706 207.435 60.3799 205.053 58.1709C202.763 55.962 200.106 54.8575 197.083 54.8574C195.25 54.8574 193.463 55.3483 191.722 56.3301C190.073 57.0664 188.606 58.2936 187.324 60.0117C186.133 61.7298 185.125 64.0616 184.3 67.0068C183.567 69.7067 183.201 73.1429 183.201 77.3154C183.201 81.7333 183.751 85.5378 184.85 88.7285C185.95 91.6737 187.507 94.251 189.523 96.46C191.63 98.669 194.196 100.879 197.219 103.088C199.327 105.051 201.48 106.647 203.679 107.874C205.97 108.856 208.169 110.206 210.276 111.924C214.124 114.378 217.652 117.324 220.859 120.76C224.157 123.951 227.043 128.123 229.517 133.277C231.991 138.186 233.915 144.813 235.29 153.158C236.756 161.258 237.489 171.567 237.489 184.085C237.489 199.302 236.435 212.188 234.328 222.742C232.22 233.051 229.334 241.519 225.669 248.146C222.004 254.774 217.881 259.56 213.299 262.505C208.81 265.45 204.137 266.923 199.281 266.923C192.318 266.923 185.858 263.977 179.903 258.087C173.947 251.951 168.999 242.501 165.059 229.738C161.211 216.73 158.829 200.162 157.913 180.035H180.453C181.186 187.644 182.514 193.78 184.438 198.443C186.454 203.107 188.882 206.543 191.722 208.752C194.563 210.716 197.587 211.697 200.793 211.697C202.992 211.697 205.191 211.084 207.39 209.856C209.589 208.384 211.421 205.929 212.887 202.493C214.353 199.057 215.086 194.271 215.086 188.135C215.086 183.471 214.674 179.79 213.849 177.09C213.025 174.145 211.833 171.813 210.276 170.095C208.81 168.131 206.978 166.412 204.779 164.939C203.404 163.958 201.984 163.099 200.518 162.362C199.052 161.626 197.632 160.767 196.257 159.785C194.883 158.803 193.509 157.699 192.134 156.472C188.011 153.772 184.071 150.704 180.315 147.268C176.558 143.586 173.214 138.923 170.282 133.277C167.441 127.632 165.197 120.269 163.547 111.188C161.898 102.106 161.074 90.815 161.074 77.3154C161.074 64.307 161.898 53.2621 163.547 44.1807C165.288 34.8537 167.579 27.3669 170.419 21.7217C173.351 15.8311 176.513 11.4131 179.903 8.46777C183.384 5.27708 186.82 3.06802 190.21 1.84082C193.692 0.613666 196.899 4.71848e-05 199.831 0Z" stroke="#CB5500"/>
<path d="M95.4873 148.741C95.4873 159.295 96.0833 169.359 97.2744 178.931C98.4655 188.503 100.527 196.358 103.459 202.494C106.391 208.384 110.423 211.33 115.554 211.33C120.776 211.329 124.716 208.261 127.373 202.125C130.122 195.989 132 188.135 133.008 178.563C134.107 168.991 134.657 159.049 134.657 148.741V3.31396H156.922V145.427C156.922 171.199 155.455 193.167 152.523 211.33C149.591 229.493 145.057 243.361 138.918 252.933C132.779 262.26 124.899 266.923 115.278 266.923C105.658 266.923 97.7324 262.26 91.502 252.933C85.2715 243.606 80.6447 229.861 77.6211 211.698C74.6891 193.535 73.2227 171.445 73.2227 145.427V3.31396H95.4873V148.741Z" fill="#CD5909"/>
<path d="M95.4873 148.741C95.4873 159.295 96.0833 169.359 97.2744 178.931C98.4655 188.503 100.527 196.358 103.459 202.494C106.391 208.384 110.423 211.33 115.554 211.33C120.776 211.329 124.716 208.261 127.373 202.125C130.122 195.989 132 188.135 133.008 178.563C134.107 168.991 134.657 159.049 134.657 148.741V3.31396H156.922V145.427C156.922 171.199 155.455 193.167 152.523 211.33C149.591 229.493 145.057 243.361 138.918 252.933C132.779 262.26 124.899 266.923 115.278 266.923C105.658 266.923 97.7324 262.26 91.502 252.933C85.2715 243.606 80.6447 229.861 77.6211 211.698C74.6891 193.535 73.2227 171.445 73.2227 145.427V3.31396H95.4873V148.741Z" stroke="#CB5500"/>
<path d="M68.7188 170.831C68.7187 186.539 68.0316 200.407 66.6572 212.434C65.3745 224.215 63.3581 234.156 60.6094 242.256C57.8607 250.355 54.4248 256.492 50.3018 260.664C46.1787 264.837 41.3224 266.923 35.7334 266.923C30.7858 266.923 26.1588 265.327 21.8525 262.137C17.5462 258.946 13.7438 253.669 10.4453 246.306C7.23845 238.942 4.71824 229.124 2.88574 216.852C1.05329 204.334 0.0916372 188.871 0 170.463H22.2646C22.2647 176.599 22.5852 182.858 23.2266 189.239C23.8679 195.375 25.059 200.652 26.7998 205.07C28.6323 209.243 31.3819 211.329 35.0469 211.329C38.1619 211.329 40.5442 209.734 42.1934 206.543C43.8425 203.107 44.9415 198.689 45.4912 193.289C46.1326 187.889 46.4541 182.121 46.4541 175.985V3.31348H68.7188V170.831Z" fill="#CD5909"/>
<path d="M68.7188 170.831C68.7187 186.539 68.0316 200.407 66.6572 212.434C65.3745 224.215 63.3581 234.156 60.6094 242.256C57.8607 250.355 54.4248 256.492 50.3018 260.664C46.1787 264.837 41.3224 266.923 35.7334 266.923C30.7858 266.923 26.1588 265.327 21.8525 262.137C17.5462 258.946 13.7438 253.669 10.4453 246.306C7.23845 238.942 4.71824 229.124 2.88574 216.852C1.05329 204.334 0.0916372 188.871 0 170.463H22.2646C22.2647 176.599 22.5852 182.858 23.2266 189.239C23.8679 195.375 25.059 200.652 26.7998 205.07C28.6323 209.243 31.3819 211.329 35.0469 211.329C38.1619 211.329 40.5442 209.734 42.1934 206.543C43.8425 203.107 44.9415 198.689 45.4912 193.289C46.1326 187.889 46.4541 182.121 46.4541 175.985V3.31348H68.7188V170.831Z" stroke="#CB5500"/>
</svg>
