<svg width="250" height="350" viewBox="0 0 250 350" fill="none" xmlns="http://www.w3.org/2000/svg">
<circle cx="120.791" cy="66.5849" r="66.5849" fill="#CB5500"/>
<path d="M82.5943 51.4327C82.8937 50.5114 84.1971 50.5114 84.4964 51.4327L87.5319 60.7749C87.6658 61.1869 88.0497 61.4659 88.483 61.4659H98.306C99.2747 61.4659 99.6775 62.7055 98.8938 63.2749L90.9468 69.0487C90.5963 69.3034 90.4496 69.7548 90.5835 70.1668L93.619 79.509C93.9183 80.4303 92.8639 81.1965 92.0801 80.6271L84.1332 74.8532C83.7827 74.5986 83.3081 74.5986 82.9576 74.8532L75.0106 80.6271C74.2269 81.1965 73.1724 80.4303 73.4717 79.509L76.5072 70.1668C76.6411 69.7548 76.4944 69.3034 76.144 69.0487L68.197 63.2749C67.4132 62.7055 67.816 61.4659 68.7847 61.4659H78.6078C79.041 61.4659 79.425 61.1869 79.5588 60.7749L82.5943 51.4327Z" fill="white"/>
<path d="M155.807 51.0401C156.129 50.1695 157.36 50.1695 157.682 51.0401L161.651 61.7648C161.752 62.0385 161.968 62.2543 162.242 62.3556L172.966 66.3241C173.837 66.6462 173.837 67.8776 172.966 68.1998L162.242 72.1682C161.968 72.2695 161.752 72.4853 161.651 72.7591L157.682 83.4837C157.36 84.3543 156.129 84.3543 155.807 83.4837L151.838 72.7591C151.737 72.4853 151.521 72.2695 151.247 72.1682L140.523 68.1998C139.652 67.8776 139.652 66.6462 140.523 66.3241L151.247 62.3556C151.521 62.2543 151.737 62.0385 151.838 61.7648L155.807 51.0401Z" fill="white"/>
<path d="M114.847 66.6711C114.503 66.3265 114.503 65.7681 114.847 65.4238L120.194 52.6569C120.539 52.3126 121.097 52.3124 121.442 52.6569L126.524 65.4804C126.868 65.8249 126.868 66.3833 126.524 66.7276L121.442 79.0516C121.097 79.3959 120.539 79.3961 120.194 79.0516L114.847 66.6711Z" fill="white"/>
<path d="M181.177 348.494V111.442H205.227V146.095H205.649C207.393 133.882 209.953 124.391 213.328 117.622C216.76 110.706 221.064 107.248 226.239 107.248C233.44 107.248 239.066 113.943 243.117 127.334C247.224 140.577 249.277 158.749 249.277 181.851V348.494H225.142V194.653C225.142 184.5 224.383 176.48 222.864 170.595C221.345 164.562 218.898 161.545 215.522 161.545C213.328 161.545 211.444 163.017 209.869 165.959C208.35 168.755 207.196 172.875 206.409 178.32C205.621 183.617 205.227 189.797 205.227 196.86V348.494H181.177Z" fill="white"/>
<path d="M144.162 348.358V112.004H156.509H168.856V348.358H144.162Z" fill="white"/>
<path d="M105.76 349.24C104.475 349.24 103.162 349.184 101.822 349.074C100.425 348.963 99.2519 348.742 98.3022 348.41V311.886C98.7491 311.997 99.196 312.052 99.6429 312.052C100.09 312.163 100.565 312.218 101.067 312.218C104.419 312.218 106.682 310.614 107.855 307.404C109.084 304.305 109.698 299.989 109.698 294.455V112.004H133.579V293.791C133.579 312.827 131.149 326.828 126.289 335.793C121.485 344.757 114.642 349.24 105.76 349.24Z" fill="white"/>
<path d="M71.3066 348.494V111.442H95.3567V348.494H71.3066Z" fill="white"/>
<path d="M0 348.494V310.972L33.2482 161.766V160.662H0.843862V111.442H59.5767V152.937L27.3411 298.17V299.494H60.8425V348.494H0Z" fill="white"/>
</svg>
