<svg width="219" height="219" viewBox="0 0 219 219" fill="none" xmlns="http://www.w3.org/2000/svg">
<circle cx="109.5" cy="109.5" r="109.5" fill="#CB5500"/>
<path d="M148.657 109.646H184.632V170.732H180.219V118.753H152.902V171.293H148.657V109.646ZM151.226 132.343H181.894V140.609H151.226V132.343ZM151.17 155.04H181.839V164.147H151.17V155.04ZM144.579 48H188.542V57.5271H144.579V48ZM141.674 90.3117H191V99.979H141.674V90.3117ZM158.377 51.0823H162.51V95.2154H158.377V51.0823ZM169.884 51.0823H174.018V95.0753H169.884V51.0823ZM146.701 63.5517L150.277 60.7496C151.208 64.4857 152.101 68.5954 152.958 73.0788C153.814 77.4688 154.429 81.2983 154.801 84.5674L151.003 87.6497C150.63 84.3806 150.034 80.4577 149.215 75.8809C148.433 71.3041 147.595 67.1944 146.701 63.5517ZM182.23 61.0298L186.084 64.2522C185.227 68.4553 184.296 72.7052 183.291 77.0018C182.323 81.2983 181.41 84.9877 180.554 88.0701L177.258 85.268C177.816 83.1197 178.394 80.6445 178.99 77.8424C179.623 74.9469 180.219 72.0514 180.777 69.1559C181.336 66.167 181.82 63.4583 182.23 61.0298Z" fill="white"/>
<path d="M85.1421 104.882H135.865V115.39H85.1421V104.882ZM108.381 82.3255H112.738V157.562C112.738 161.111 112.514 163.773 112.068 165.548C111.658 167.323 110.932 168.63 109.889 169.471C108.846 170.312 107.394 170.872 105.532 171.152C103.707 171.432 101.454 171.526 98.7724 171.432C98.6979 170.405 98.5489 169.237 98.3255 167.93C98.1393 166.716 97.9158 165.408 97.6552 164.007C97.4317 162.699 97.2083 161.578 96.9848 160.644C98.4745 160.738 99.8896 160.784 101.23 160.784C102.608 160.878 103.781 160.924 104.75 160.924C105.755 160.924 106.463 160.924 106.872 160.924C107.468 160.738 107.859 160.411 108.045 159.944C108.269 159.57 108.381 158.73 108.381 157.422V82.3255ZM90.9517 51.9227H127.374V62.4306H90.9517V51.9227ZM125.977 51.9227H127.039L127.988 51.3623L131.172 57.3868C129.496 61.59 127.541 65.8865 125.307 70.2765C123.11 74.573 120.819 78.6361 118.436 82.4656C116.09 86.2952 113.836 89.611 111.676 92.4131C111.453 91.6659 111.174 90.8252 110.839 89.8912C110.541 88.9572 110.205 88.0698 109.833 87.2292C109.498 86.2952 109.2 85.5479 108.939 84.9875C110.988 82.4656 113.092 79.4767 115.252 76.0208C117.412 72.4715 119.441 68.8287 121.341 65.0926C123.24 61.2631 124.785 57.7137 125.977 54.4446V51.9227Z" fill="white"/>
<path d="M39.9489 57.9473V78.1225H68.7737V57.9473H39.9489ZM35.8152 48.4202H73.075V87.7897H35.8152V48.4202ZM29.7262 125.478H79.4433V134.725H29.7262V125.478ZM33.2455 100.819H76.315V110.207H33.2455V100.819ZM52.2944 103.762H56.5958C56.3723 111.794 55.9999 119.033 55.4785 125.478C54.9944 131.829 54.231 137.48 53.1882 142.431C52.1827 147.381 50.7489 151.724 48.8868 155.46C47.0248 159.197 44.6413 162.372 41.7365 164.988C38.8317 167.603 35.2752 169.704 31.0669 171.292C30.8807 169.985 30.5828 168.444 30.1731 166.669C29.7634 164.894 29.3724 163.493 29 162.466C32.9848 161.065 36.3179 159.29 38.9993 157.142C41.6807 154.9 43.8593 152.238 45.5351 149.156C47.211 145.98 48.4958 142.244 49.3896 137.947C50.3206 133.651 50.991 128.7 51.4006 123.096C51.8103 117.399 52.1082 110.954 52.2944 103.762ZM57.5454 126.879C58.402 134.351 59.7613 140.516 61.6234 145.373C63.5227 150.136 65.9806 153.873 68.9971 156.581C72.0137 159.197 75.6819 160.878 80.0019 161.625C79.704 162.372 79.3874 163.306 79.0523 164.427C78.7543 165.548 78.475 166.669 78.2143 167.79C77.9536 169.004 77.7302 170.125 77.544 171.152C74.1178 170.125 71.0826 168.584 68.4385 166.529C65.8316 164.474 63.5599 161.765 61.6234 158.403C59.724 154.947 58.1227 150.744 56.8192 145.793C55.553 140.749 54.5103 134.865 53.691 128.14L57.5454 126.879Z" fill="white"/>
</svg>
