<svg width="717" height="242" viewBox="0 0 717 242" fill="none" xmlns="http://www.w3.org/2000/svg">
<path d="M492.085 241.245V4.19365H516.136V38.8465H516.557C518.301 26.6334 520.861 17.1425 524.237 10.3738C527.668 3.45792 531.972 0 537.148 0C544.349 0 549.974 6.69513 554.025 20.0854C558.132 33.3285 560.185 51.501 560.185 74.6029V241.245H536.051V87.4046C536.051 77.2515 535.291 69.2321 533.772 63.3462C532.253 57.3133 529.806 54.2968 526.431 54.2968C524.237 54.2968 522.352 55.7682 520.777 58.7111C519.258 61.5069 518.105 65.627 517.317 71.0714C516.529 76.3686 516.136 82.5488 516.136 89.6117V241.245H492.085Z" fill="black"/>
<path d="M455.07 241.11V4.75537H467.417H479.764V241.11H455.07Z" fill="black"/>
<path d="M416.668 241.992C415.383 241.992 414.07 241.936 412.73 241.826C411.333 241.715 410.16 241.493 409.21 241.161V204.638C409.657 204.749 410.104 204.804 410.551 204.804C410.998 204.915 411.473 204.97 411.976 204.97C415.327 204.97 417.59 203.365 418.763 200.156C419.992 197.057 420.606 192.74 420.606 187.206V4.75537H444.487V186.542C444.487 205.579 442.057 219.579 437.197 228.544C432.393 237.509 425.55 241.992 416.668 241.992Z" fill="black"/>
<path d="M382.215 241.245V4.1936H406.265V241.245H382.215Z" fill="black"/>
<path d="M310.908 241.245V203.723L344.156 54.5175V53.4139H311.752V4.1936H370.485V45.6887L338.249 190.922V192.246H371.751V241.245H310.908Z" fill="black"/>
<path d="M717 3.87354V166.918C717 237.692 705.541 241.992 688.811 241.992C672.082 241.992 660.623 237.692 660.623 166.918V3.87354H683.388V170.225C683.388 184.116 685.909 187.754 688.811 187.754C691.714 187.754 694.235 184.116 694.235 170.225V3.87354H717Z" fill="black"/>
<path d="M633.304 4.24194H657.48L648.565 241.623H617.061L609.959 98.1772H609.657L602.555 241.623H570.975L562.061 4.24194H586.236L589.183 160.235H589.636L597.267 4.24194H622.349L629.904 160.235H630.358L633.304 4.24194Z" fill="black"/>
<path d="M287.178 4.24194H307.426V241.623H275.695L260.131 88.6819H259.98V241.623H239.733V4.24194H271.237L287.103 153.792H287.178V4.24194Z" fill="black"/>
<path d="M212.361 4.24194H234.875V241.623H212.361V4.24194Z" fill="black"/>
<path d="M208.549 4.24194V54.7703H195.177V241.623H172.663V54.7703H159.215V4.24194H208.549Z" fill="black"/>
<path d="M123.971 161.76V172.071C123.971 183.993 124.954 191.081 129.866 191.081C133.947 191.081 135.534 184.959 135.534 174.648V172.715C135.534 158.538 133.342 157.571 118.303 143.393C105.683 131.471 102.735 118.583 102.735 77.3389V71.8613C102.735 14.5067 114.373 3.87354 130.395 3.87354C150.875 3.87354 156.694 19.3399 156.694 60.9059V79.2722H135.912V70.5724C135.912 53.4949 134.325 49.3061 130.546 49.3061C126.692 49.3061 124.878 52.5283 124.878 63.8058V66.7058C124.878 81.5277 127.599 84.7499 138.179 94.4164C148.381 103.761 158.13 110.849 158.13 162.082V167.882C158.13 221.048 149.515 241.992 128.959 241.992C111.88 241.992 101.753 228.136 101.753 185.604V161.76H123.971Z" fill="black"/>
<path d="M96.2533 3.87354V166.918C96.2533 237.692 85.074 241.992 68.7524 241.992C52.4307 241.992 41.2515 237.692 41.2515 166.918V3.87354H63.4609V170.225C63.4609 184.116 65.9203 187.754 68.7524 187.754C71.5844 187.754 74.0439 184.116 74.0439 170.225V3.87354H96.2533Z" fill="black"/>
<path d="M0 179.816C2.6343 184.777 4.817 187.423 6.84917 187.423C10.6124 187.423 13.322 181.801 13.322 164.603V3.87354H35.7512V167.58C35.7512 233.393 23.0313 241.992 15.1284 241.992C8.20395 241.992 3.46222 233.393 0 227.44V179.816Z" fill="black"/>
</svg>
