<svg width="717" height="350" viewBox="0 0 717 350" fill="none" xmlns="http://www.w3.org/2000/svg">
<circle cx="431.699" cy="66.5849" r="66.5849" fill="#CB5500"/>
<path d="M393.503 51.4327C393.802 50.5114 395.105 50.5114 395.405 51.4327L398.44 60.7749C398.574 61.1869 398.958 61.4659 399.391 61.4659H409.214C410.183 61.4659 410.586 62.7055 409.802 63.2749L401.855 69.0487C401.504 69.3034 401.358 69.7548 401.492 70.1668L404.527 79.509C404.827 80.4303 403.772 81.1965 402.988 80.6271L395.041 74.8532C394.691 74.5986 394.216 74.5986 393.866 74.8532L385.919 80.6271C385.135 81.1965 384.081 80.4303 384.38 79.509L387.415 70.1668C387.549 69.7548 387.403 69.3034 387.052 69.0487L379.105 63.2749C378.321 62.7055 378.724 61.4659 379.693 61.4659H389.516C389.949 61.4659 390.333 61.1869 390.467 60.7749L393.503 51.4327Z" fill="black"/>
<path d="M466.715 51.0401C467.037 50.1695 468.268 50.1695 468.591 51.0401L472.559 61.7648C472.66 62.0385 472.876 62.2543 473.15 62.3556L483.875 66.3241C484.745 66.6462 484.745 67.8776 483.875 68.1998L473.15 72.1682C472.876 72.2695 472.66 72.4853 472.559 72.7591L468.591 83.4837C468.268 84.3543 467.037 84.3543 466.715 83.4837L462.746 72.7591C462.645 72.4853 462.429 72.2695 462.156 72.1682L451.431 68.1998C450.56 67.8776 450.56 66.6462 451.431 66.3241L462.156 62.3556C462.429 62.2543 462.645 62.0385 462.746 61.7648L466.715 51.0401Z" fill="black"/>
<path d="M425.755 66.6711C425.411 66.3265 425.411 65.7681 425.755 65.4238L431.103 52.6569C431.447 52.3126 432.005 52.3124 432.35 52.6569L437.432 65.4804C437.776 65.8249 437.776 66.3833 437.432 66.7276L432.35 79.0516C432.006 79.3959 431.447 79.3961 431.103 79.0516L425.755 66.6711Z" fill="black"/>
<path d="M492.085 348.494V111.442H516.136V146.095H516.557C518.301 133.882 520.861 124.391 524.237 117.622C527.668 110.706 531.972 107.248 537.148 107.248C544.349 107.248 549.974 113.943 554.025 127.334C558.132 140.577 560.185 158.749 560.185 181.851V348.494H536.051V194.653C536.051 184.5 535.291 176.48 533.772 170.595C532.253 164.562 529.806 161.545 526.431 161.545C524.237 161.545 522.352 163.017 520.777 165.959C519.258 168.755 518.105 172.875 517.317 178.32C516.529 183.617 516.136 189.797 516.136 196.86V348.494H492.085Z" fill="white"/>
<path d="M455.07 348.358V112.004H467.417H479.764V348.358H455.07Z" fill="white"/>
<path d="M416.668 349.24C415.383 349.24 414.07 349.184 412.73 349.074C411.333 348.963 410.16 348.742 409.21 348.41V311.886C409.657 311.997 410.104 312.052 410.551 312.052C410.998 312.163 411.473 312.218 411.976 312.218C415.327 312.218 417.59 310.614 418.763 307.404C419.992 304.305 420.606 299.989 420.606 294.455V112.004H444.487V293.791C444.487 312.827 442.057 326.828 437.197 335.793C432.393 344.757 425.55 349.24 416.668 349.24Z" fill="white"/>
<path d="M382.215 348.494V111.442H406.265V348.494H382.215Z" fill="white"/>
<path d="M310.908 348.494V310.972L344.156 161.766V160.662H311.752V111.442H370.485V152.937L338.249 298.17V299.494H371.751V348.494H310.908Z" fill="white"/>
<path d="M717 111.122V274.167C717 344.941 705.541 349.24 688.811 349.24C672.082 349.24 660.623 344.941 660.623 274.167V111.122H683.388V277.474C683.388 291.364 685.909 295.002 688.811 295.002C691.714 295.002 694.235 291.364 694.235 277.474V111.122H717Z" fill="white"/>
<path d="M633.304 111.49H657.48L648.565 348.872H617.061L609.959 205.425H609.657L602.555 348.872H570.975L562.061 111.49H586.236L589.183 267.484H589.636L597.267 111.49H622.349L629.904 267.484H630.358L633.304 111.49Z" fill="white"/>
<path d="M287.178 111.49H307.426V348.872H275.695L260.131 195.93H259.98V348.872H239.733V111.49H271.237L287.103 261.041H287.178V111.49Z" fill="white"/>
<path d="M212.361 111.49H234.875V348.872H212.361V111.49Z" fill="white"/>
<path d="M208.549 111.49V162.019H195.177V348.872H172.663V162.019H159.215V111.49H208.549Z" fill="white"/>
<path d="M123.971 269.008V279.319C123.971 291.241 124.954 298.33 129.866 298.33C133.947 298.33 135.534 292.208 135.534 281.897V279.963C135.534 265.786 133.342 264.819 118.303 250.642C105.683 238.72 102.735 225.831 102.735 184.587V179.11C102.735 121.755 114.373 111.122 130.395 111.122C150.875 111.122 156.694 126.588 156.694 168.154V186.521H135.912V177.821C135.912 160.743 134.325 156.554 130.546 156.554C126.692 156.554 124.878 159.777 124.878 171.054V173.954C124.878 188.776 127.599 191.998 138.179 201.665C148.381 211.009 158.13 218.098 158.13 269.33V275.13C158.13 328.296 149.515 349.24 128.959 349.24C111.88 349.24 101.753 335.385 101.753 292.852V269.008H123.971Z" fill="white"/>
<path d="M96.2533 111.122V274.167C96.2533 344.941 85.074 349.24 68.7524 349.24C52.4307 349.24 41.2515 344.941 41.2515 274.167V111.122H63.4609V277.474C63.4609 291.364 65.9203 295.002 68.7524 295.002C71.5844 295.002 74.0439 291.364 74.0439 277.474V111.122H96.2533Z" fill="white"/>
<path d="M0 287.065C2.6343 292.025 4.817 294.671 6.84917 294.671C10.6124 294.671 13.322 289.049 13.322 271.852V111.122H35.7512V274.828C35.7512 340.641 23.0313 349.24 15.1284 349.24C8.20395 349.24 3.46222 340.641 0 334.688V287.065Z" fill="white"/>
</svg>
