<svg width="153" height="108" viewBox="0 0 153 108" fill="none" xmlns="http://www.w3.org/2000/svg">
<circle cx="72.2837" cy="47.0117" r="47.0117" fill="white"/>
<path d="M92.3352 46.631H108.618V58.1562H106.62V48.3492H94.2568V58.2619H92.3352V46.631ZM93.4983 50.9133H107.379V52.4729H93.4983V50.9133ZM93.473 55.1956H107.354V56.9138H93.473V55.1956ZM90.4895 35H110.388V36.7975H90.4895V35ZM89.1748 42.9831H111.5V44.807H89.1748V42.9831ZM96.7345 35.5815H98.6055V43.9083H96.7345V35.5815ZM101.943 35.5815H103.814V43.8818H101.943V35.5815ZM91.4503 37.9342L93.0684 37.4055C93.4898 38.1104 93.8944 38.8858 94.282 39.7317C94.6697 40.56 94.9478 41.2825 95.1164 41.8993L93.3971 42.4808C93.2286 41.864 92.9589 41.1239 92.5881 40.2604C92.2341 39.3969 91.8548 38.6215 91.4503 37.9342ZM107.53 37.4584L109.275 38.0663C108.887 38.8594 108.466 39.6612 108.011 40.4718C107.573 41.2825 107.16 41.9786 106.772 42.5601L105.28 42.0314C105.533 41.6261 105.794 41.1591 106.064 40.6304C106.351 40.0841 106.62 39.5378 106.873 38.9915C107.126 38.4276 107.345 37.9166 107.53 37.4584Z" fill="#CB5500"/>
<path d="M62.6504 45.7326H85.6076V47.7151H62.6504V45.7326ZM73.1683 41.4767H75.1403V55.6717C75.1403 56.3414 75.0392 56.8437 74.837 57.1785C74.6515 57.5133 74.3229 57.76 73.8509 57.9186C73.3789 58.0772 72.7216 58.183 71.8788 58.2358C71.0529 58.2887 70.0331 58.3063 68.8195 58.2887C68.7858 58.0949 68.7184 57.8746 68.6173 57.6279C68.533 57.3988 68.4318 57.1521 68.3139 56.8877C68.2127 56.641 68.1116 56.4295 68.0105 56.2533C68.6847 56.2709 69.3252 56.2797 69.932 56.2797C70.5556 56.2973 71.0866 56.3062 71.5248 56.3062C71.9799 56.3062 72.3002 56.3062 72.4856 56.3062C72.7553 56.2709 72.9323 56.2092 73.0166 56.1211C73.1177 56.0506 73.1683 55.892 73.1683 55.6453V41.4767ZM65.2799 35.7405H81.7646V37.7231H65.2799V35.7405ZM81.1325 35.7405H81.6129L82.0427 35.6348L83.4838 36.7714C82.7253 37.5644 81.8404 38.3751 80.8291 39.2034C79.8346 40.014 78.798 40.7806 77.7192 41.5031C76.6574 42.2256 75.6376 42.8512 74.66 43.3799C74.5588 43.2389 74.4324 43.0803 74.2807 42.9041C74.1459 42.7279 73.9942 42.5605 73.8256 42.4019C73.6739 42.2256 73.5391 42.0847 73.4211 41.9789C74.3481 41.5031 75.3005 40.9392 76.2781 40.2872C77.2557 39.6175 78.1743 38.9302 79.034 38.2253C79.8936 37.5028 80.5931 36.8331 81.1325 36.2163V35.7405Z" fill="#CB5500"/>
<path d="M40.9555 36.8766V40.6831H54.0017V36.8766H40.9555ZM39.0846 35.0791H55.9485V42.5071H39.0846V35.0791ZM36.3287 49.6178H58.8308V51.3625H36.3287V49.6178ZM37.9215 44.9654H57.415V46.7365H37.9215V44.9654ZM46.5431 45.5205H48.49C48.3888 47.0361 48.2203 48.4018 47.9843 49.6178C47.7652 50.8161 47.4196 51.8823 46.9477 52.8163C46.4926 53.7503 45.8436 54.5698 45.0009 55.2747C44.1581 55.9796 43.0793 56.5788 41.7646 57.0722C40.4499 57.5656 38.8402 57.9621 36.9355 58.2617C36.8512 58.015 36.7164 57.7242 36.5309 57.3894C36.3455 57.0546 36.1686 56.7902 36 56.5964C37.8035 56.332 39.3121 55.9972 40.5257 55.5919C41.7393 55.169 42.7254 54.6667 43.4839 54.0852C44.2424 53.486 44.8239 52.7811 45.2284 51.9704C45.6498 51.1598 45.9532 50.2258 46.1386 49.1684C46.324 48.0934 46.4589 46.8775 46.5431 45.5205ZM48.9198 49.8821C49.3075 51.292 49.9227 52.4551 50.7655 53.3714C51.6251 54.2702 52.7376 54.9751 54.1029 55.4862C55.4682 55.9796 57.1284 56.2968 59.0837 56.4378C58.9488 56.5788 58.8056 56.755 58.6539 56.9665C58.519 57.1779 58.3926 57.3894 58.2746 57.6009C58.1566 57.83 58.0555 58.0414 57.9712 58.2353C56.4205 58.0414 55.0468 57.7507 53.85 57.363C52.6701 56.9753 51.6419 56.4642 50.7655 55.8298C49.9058 55.1778 49.181 54.3847 48.5911 53.4507C48.018 52.4991 47.546 51.3889 47.1752 50.1201L48.9198 49.8821Z" fill="#CB5500"/>
<path d="M111 108V61.817H125.833V68.5682H126.093C127.169 66.1888 128.747 64.3397 130.829 63.021C132.945 61.6737 135.6 61 138.792 61C143.233 61 146.703 62.3044 149.201 64.9131C151.734 67.4931 153 71.0335 153 75.5343V108H138.115V78.0284C138.115 76.0503 137.647 74.488 136.71 73.3413C135.773 72.1659 134.264 71.5782 132.182 71.5782C130.829 71.5782 129.667 71.8649 128.695 72.4382C127.758 72.9829 127.047 73.7856 126.561 74.8463C126.076 75.8783 125.833 77.0823 125.833 78.4584V108H111Z" fill="black"/>
<path d="M89 108V62H96H103V108H89Z" fill="black"/>
<path d="M64.6508 108C63.8496 108 63.0309 107.989 62.1948 107.968C61.3238 107.946 60.5922 107.903 60 107.839V100.757C60.2787 100.779 60.5574 100.789 60.8361 100.789C61.1148 100.811 61.4109 100.822 61.7245 100.822C63.8147 100.822 65.2257 100.51 65.9572 99.888C66.7237 99.2871 67.1069 98.4502 67.1069 97.3772V62H82V97.2484C82 100.94 80.4846 103.654 77.4537 105.393C74.4576 107.131 70.19 108 64.6508 108Z" fill="black"/>
<path d="M43 108V62H58V108H43Z" fill="black"/>
<path d="M0 108V100.719L20.2191 71.7654V71.5512H0.513176V62H36.2302V70.0521L16.6269 98.2346V98.4916H37V108H0Z" fill="black"/>
</svg>
