<svg width="153" height="108" viewBox="0 0 153 108" fill="none" xmlns="http://www.w3.org/2000/svg">
<circle cx="72.2837" cy="47.0117" r="47.0117" fill="#CB5500"/>
<path d="M92.3352 46.631H108.618V58.1562H106.62V48.3492H94.2568V58.2619H92.3352V46.631ZM93.4983 50.9133H107.379V52.4729H93.4983V50.9133ZM93.473 55.1956H107.354V56.9138H93.473V55.1956ZM90.4895 35H110.388V36.7975H90.4895V35ZM89.1748 42.9831H111.5V44.807H89.1748V42.9831ZM96.7345 35.5815H98.6055V43.9083H96.7345V35.5815ZM101.943 35.5815H103.814V43.8818H101.943V35.5815ZM91.4503 37.9342L93.0684 37.4055C93.4898 38.1104 93.8944 38.8858 94.282 39.7317C94.6697 40.56 94.9478 41.2825 95.1164 41.8993L93.3971 42.4808C93.2286 41.864 92.9589 41.1239 92.5881 40.2604C92.2341 39.3969 91.8548 38.6215 91.4503 37.9342ZM107.53 37.4584L109.275 38.0663C108.887 38.8594 108.466 39.6612 108.011 40.4718C107.573 41.2825 107.16 41.9786 106.772 42.5601L105.28 42.0314C105.533 41.6261 105.794 41.1591 106.064 40.6304C106.351 40.0841 106.62 39.5378 106.873 38.9915C107.126 38.4276 107.345 37.9166 107.53 37.4584Z" fill="white"/>
<path d="M62.6504 45.7323H85.6076V47.7149H62.6504V45.7323ZM73.1683 41.4764H75.1403V55.6715C75.1403 56.3412 75.0392 56.8434 74.837 57.1782C74.6515 57.5131 74.3229 57.7598 73.8509 57.9184C73.3789 58.077 72.7216 58.1827 71.8788 58.2356C71.0529 58.2885 70.0331 58.3061 68.8195 58.2885C68.7858 58.0946 68.7184 57.8743 68.6173 57.6276C68.533 57.3985 68.4318 57.1518 68.3139 56.8875C68.2127 56.6407 68.1116 56.4293 68.0105 56.253C68.6847 56.2707 69.3252 56.2795 69.932 56.2795C70.5556 56.2971 71.0866 56.3059 71.5248 56.3059C71.9799 56.3059 72.3002 56.3059 72.4856 56.3059C72.7553 56.2707 72.9323 56.209 73.0166 56.1209C73.1177 56.0504 73.1683 55.8918 73.1683 55.6451V41.4764ZM65.2799 35.7403H81.7646V37.7228H65.2799V35.7403ZM81.1325 35.7403H81.6129L82.0427 35.6345L83.4838 36.7712C82.7253 37.5642 81.8404 38.3748 80.8291 39.2031C79.8346 40.0138 78.798 40.7803 77.7192 41.5029C76.6574 42.2254 75.6376 42.851 74.66 43.3797C74.5588 43.2387 74.4324 43.0801 74.2807 42.9039C74.1459 42.7276 73.9942 42.5602 73.8256 42.4016C73.6739 42.2254 73.5391 42.0844 73.4211 41.9787C74.3481 41.5029 75.3005 40.9389 76.2781 40.2869C77.2557 39.6172 78.1743 38.93 79.034 38.2251C79.8936 37.5025 80.5931 36.8329 81.1325 36.2161V35.7403Z" fill="white"/>
<path d="M40.9555 36.8769V40.6834H54.0017V36.8769H40.9555ZM39.0846 35.0793H55.9485V42.5073H39.0846V35.0793ZM36.3287 49.6181H58.8308V51.3627H36.3287V49.6181ZM37.9215 44.9657H57.415V46.7367H37.9215V44.9657ZM46.5431 45.5208H48.49C48.3888 47.0363 48.2203 48.4021 47.9843 49.6181C47.7652 50.8164 47.4196 51.8826 46.9477 52.8166C46.4926 53.7506 45.8436 54.57 45.0009 55.2749C44.1581 55.9798 43.0793 56.579 41.7646 57.0724C40.4499 57.5659 38.8402 57.9624 36.9355 58.262C36.8512 58.0153 36.7164 57.7245 36.5309 57.3897C36.3455 57.0548 36.1686 56.7905 36 56.5966C37.8035 56.3323 39.3121 55.9975 40.5257 55.5921C41.7393 55.1692 42.7254 54.6669 43.4839 54.0854C44.2424 53.4862 44.8239 52.7813 45.2284 51.9707C45.6498 51.16 45.9532 50.226 46.1386 49.1687C46.324 48.0937 46.4589 46.8777 46.5431 45.5208ZM48.9198 49.8824C49.3075 51.2922 49.9227 52.4553 50.7655 53.3717C51.6251 54.2704 52.7376 54.9753 54.1029 55.4864C55.4682 55.9798 57.1284 56.297 59.0837 56.438C58.9488 56.579 58.8056 56.7552 58.6539 56.9667C58.519 57.1782 58.3926 57.3897 58.2746 57.6011C58.1566 57.8302 58.0555 58.0417 57.9712 58.2355C56.4205 58.0417 55.0468 57.7509 53.85 57.3632C52.6701 56.9755 51.6419 56.4645 50.7655 55.83C49.9058 55.178 49.181 54.385 48.5911 53.451C48.018 52.4994 47.546 51.3891 47.1752 50.1203L48.9198 49.8824Z" fill="white"/>
<path d="M111 108V61.817H125.833V68.5682H126.093C127.169 66.1888 128.747 64.3397 130.829 63.021C132.945 61.6737 135.6 61 138.792 61C143.233 61 146.703 62.3044 149.201 64.9131C151.734 67.4931 153 71.0335 153 75.5343V108H138.115V78.0284C138.115 76.0503 137.647 74.488 136.71 73.3413C135.773 72.1659 134.264 71.5782 132.182 71.5782C130.829 71.5782 129.667 71.8649 128.695 72.4382C127.758 72.9829 127.047 73.7856 126.561 74.8463C126.076 75.8783 125.833 77.0823 125.833 78.4584V108H111Z" fill="black"/>
<path d="M89 108V62H96H103V108H89Z" fill="black"/>
<path d="M64.6508 108C63.8496 108 63.0309 107.989 62.1948 107.968C61.3238 107.946 60.5922 107.903 60 107.839V100.757C60.2787 100.779 60.5574 100.789 60.8361 100.789C61.1148 100.811 61.4109 100.822 61.7245 100.822C63.8147 100.822 65.2257 100.51 65.9572 99.888C66.7237 99.2871 67.1069 98.4502 67.1069 97.3772V62H82V97.2484C82 100.94 80.4846 103.654 77.4537 105.393C74.4576 107.131 70.19 108 64.6508 108Z" fill="black"/>
<path d="M43 108V62H58V108H43Z" fill="black"/>
<path d="M0 108V100.719L20.2191 71.7654V71.5512H0.513176V62H36.2302V70.0521L16.6269 98.2346V98.4916H37V108H0Z" fill="black"/>
</svg>
